<?xml version="1.0" encoding="UTF-8"?><svg id="a" xmlns="http://www.w3.org/2000/svg" width="479" height="14" viewBox="0 0 479 14"><rect x="232.49" y="-232.5" width="14.01" height="479" transform="translate(232.5 246.5) rotate(-90)" fill="#58595b"/><rect id="b" x="75.92" y="4.13" width="5.74" height="5.74" fill="#5f6061"/><rect id="c" x="450.42" y="6.67" width=".66" height=".66" fill="#5f6061"/><rect id="d" x="119.16" y="4.32" width="5.35" height="5.35" fill="#5f6061"/><rect id="e" x="147.91" y="4.52" width="4.96" height="4.96" fill="#5f6061"/><rect id="f" x="176.66" y="4.72" width="4.57" height="4.57" fill="#5f6061"/><rect id="g" x="205.6" y="5.11" width="3.79" height="3.79" fill="#5f6061"/><rect id="h" x="234.35" y="5.3" width="3.4" height="3.4" fill="#5f6061"/><rect id="i" x="263.09" y="5.5" width="3.01" height="3" fill="#5f6061"/><rect id="j" x="291.84" y="5.69" width="2.62" height="2.61" fill="#5f6061"/><rect id="k" x="320.59" y="5.89" width="2.22" height="2.22" fill="#5f6061"/><rect id="l" x="349.34" y="6.08" width="1.83" height="1.83" fill="#5f6061"/><rect id="m" x="378.09" y="6.28" width="1.44" height="1.44" fill="#5f6061"/><rect id="n" x="406.83" y="6.47" width="1.05" height="1.05" fill="#5f6061"/><rect id="o" x="435.58" y="6.67" width=".66" height=".66" fill="#5f6061"/><rect id="p" x="421.3" y="6.67" width=".66" height=".66" fill="#5f6061"/><rect id="q" x="392.56" y="6.47" width="1.05" height="1.05" fill="#5f6061"/><rect id="r" x="363.81" y="6.28" width="1.44" height="1.44" fill="#5f6061"/><rect id="s" x="335.06" y="6.08" width="1.83" height="1.83" fill="#5f6061"/><rect id="t" x="306.31" y="5.89" width="2.22" height="2.22" fill="#5f6061"/><rect id="u" x="277.57" y="5.69" width="2.61" height="2.61" fill="#5f6061"/><rect id="v" x="248.82" y="5.5" width="3" height="3" fill="#5f6061"/><rect id="w" x="220.07" y="5.3" width="3.4" height="3.4" fill="#5f6061"/><rect id="x" x="191.32" y="5.11" width="3.79" height="3.79" fill="#5f6061"/><rect id="y" x="162.38" y="4.72" width="4.57" height="4.57" fill="#5f6061"/><rect id="z" x="133.63" y="4.52" width="4.96" height="4.96" fill="#5f6061"/><rect id="aa" x="104.89" y="4.32" width="5.35" height="5.35" fill="#5f6061"/><rect id="ab" x="90.61" y="4.32" width="5.35" height="5.35" fill="#5f6061"/><rect id="ac" x="75.92" y="4.13" width="5.74" height="5.74" fill="#5f6061"/><rect id="ad" x="61.64" y="4.13" width="5.74" height="5.74" fill="#5f6061"/><rect id="ae" x="47.15" y="3.93" width="6.13" height="6.13" fill="#5f6061"/><rect id="af" x="32.88" y="3.93" width="6.13" height="6.13" fill="#5f6061"/><rect id="ag" x="18.39" y="3.74" width="6.52" height="6.52" fill="#5f6061"/><rect id="ah" x="4.12" y="3.74" width="6.52" height="6.52" fill="#5f6061"/><rect id="ai" x="75.92" y="4.13" width="5.74" height="5.74" fill="#5f6061"/></svg>