<svg width="70" height="70" viewBox="0 0 70 70" fill="none" xmlns="http://www.w3.org/2000/svg">
<g id="information_rgb 1">
<path id="Vector" d="M36.8199 4.15521C19.8127 4.15521 5.9751 17.9928 5.9751 35C5.9751 52.0072 19.8127 65.8448 36.8199 65.8448C53.8271 65.8448 66.4663 52.0072 66.4663 35C66.4663 17.9928 53.8271 4.15521 36.8199 4.15521Z" fill="#FF8200"/>
<path id="Vector_2" d="M36.8254 16.0664C35.4254 16.0664 34.2886 17.2032 34.2886 18.6032C34.2886 20.0032 35.4254 21.14 36.8254 21.14C38.2254 21.14 38.2366 20.0032 38.2366 18.6032C38.2366 17.2032 38.2254 16.0664 36.8254 16.0664Z" fill="white"/>
<path id="Vector_3" d="M33.8408 53.1776H38.5672V25.2336H33.8408V53.1776Z" fill="white"/>
<path id="Vector_4" d="M34.9998 67.032C17.3374 67.032 2.96777 52.6624 2.96777 35C2.96777 17.3376 17.3374 2.96802 34.9998 2.96802C52.6622 2.96802 67.0318 17.3376 67.0318 35C67.0318 52.6624 52.6622 67.032 34.9998 67.032ZM34.9998 4.22242C18.0318 4.22802 4.22777 18.032 4.22777 35C4.22777 51.968 18.0318 65.772 34.9998 65.772C51.9678 65.772 65.7718 51.968 65.7718 35C65.7718 18.032 51.9678 4.22802 34.9998 4.22802V4.22242Z" fill="#4B4B4B"/>
<g id="Group">
<path id="Vector_5" d="M35.0114 21.7952C36.7619 21.7952 38.181 20.3761 38.181 18.6256C38.181 16.8751 36.7619 15.456 35.0114 15.456C33.2609 15.456 31.8418 16.8751 31.8418 18.6256C31.8418 20.3761 33.2609 21.7952 35.0114 21.7952Z" stroke="#4B4B4B" stroke-width="1.5" stroke-linejoin="round"/>
<path id="Vector_6" d="M38.4497 53.5304H31.5729V24.8976H38.4497V53.5304Z" stroke="#4B4B4B" stroke-width="1.5" stroke-linejoin="round"/>
</g>
</g>
</svg>
