<?xml version="1.0" encoding="UTF-8"?><svg id="a" xmlns="http://www.w3.org/2000/svg" width="14" height="479" viewBox="0 0 14 479"><rect x="-.01" y=".08" width="14.01" height="479" fill="#58595b"/><rect id="b" x="4.13" y="397.04" width="5.74" height="5.74" fill="#5f6061"/><rect id="c" x="6.67" y="27.62" width=".66" height=".66" fill="#5f6061"/><rect id="d" x="4.33" y="354.19" width="5.35" height="5.35" fill="#5f6061"/><rect id="e" x="4.52" y="325.83" width="4.96" height="4.96" fill="#5f6061"/><rect id="f" x="4.72" y="297.48" width="4.57" height="4.57" fill="#5f6061"/><rect id="g" x="5.11" y="269.31" width="3.79" height="3.79" fill="#5f6061"/><rect id="h" x="5.3" y="240.96" width="3.4" height="3.4" fill="#5f6061"/><rect id="i" x="5.5" y="212.6" width="3" height="3.01" fill="#5f6061"/><rect id="j" x="5.69" y="184.24" width="2.61" height="2.62" fill="#5f6061"/><rect id="k" x="5.89" y="155.89" width="2.22" height="2.22" fill="#5f6061"/><rect id="l" x="6.08" y="127.53" width="1.83" height="1.83" fill="#5f6061"/><rect id="m" x="6.28" y="99.17" width="1.44" height="1.44" fill="#5f6061"/><rect id="n" x="6.47" y="70.82" width="1.05" height="1.05" fill="#5f6061"/><rect id="o" x="6.67" y="42.46" width=".66" height=".66" fill="#5f6061"/><rect id="p" x="6.67" y="56.73" width=".66" height=".66" fill="#5f6061"/><rect id="q" x="6.47" y="85.09" width="1.05" height="1.05" fill="#5f6061"/><rect id="r" x="6.28" y="113.45" width="1.44" height="1.44" fill="#5f6061"/><rect id="s" x="6.08" y="141.8" width="1.83" height="1.83" fill="#5f6061"/><rect id="t" x="5.89" y="170.16" width="2.22" height="2.22" fill="#5f6061"/><rect id="u" x="5.69" y="198.52" width="2.61" height="2.61" fill="#5f6061"/><rect id="v" x="5.5" y="226.88" width="3" height="3" fill="#5f6061"/><rect id="w" x="5.3" y="255.23" width="3.4" height="3.4" fill="#5f6061"/><rect id="x" x="5.11" y="283.59" width="3.79" height="3.79" fill="#5f6061"/><rect id="y" x="4.72" y="311.75" width="4.57" height="4.57" fill="#5f6061"/><rect id="z" x="4.52" y="340.11" width="4.96" height="4.96" fill="#5f6061"/><rect id="aa" x="4.33" y="368.46" width="5.35" height="5.35" fill="#5f6061"/><rect id="ab" x="4.33" y="382.74" width="5.35" height="5.35" fill="#5f6061"/><rect id="ac" x="4.13" y="397.04" width="5.74" height="5.74" fill="#5f6061"/><rect id="ad" x="4.13" y="411.32" width="5.74" height="5.74" fill="#5f6061"/><rect id="ae" x="3.93" y="425.42" width="6.13" height="6.13" fill="#5f6061"/><rect id="af" x="3.93" y="439.69" width="6.13" height="6.13" fill="#5f6061"/><rect id="ag" x="3.74" y="453.79" width="6.52" height="6.52" fill="#5f6061"/><rect id="ah" x="3.74" y="468.06" width="6.52" height="6.52" fill="#5f6061"/><rect id="ai" x="4.13" y="397.04" width="5.74" height="5.74" fill="#5f6061"/></svg>