<svg xmlns="http://www.w3.org/2000/svg" xml:space="preserve" id="utk_footer_logo" x="0" y="0" style="enable-background:new 0 0 209.63 46.83" version="1.1" viewBox="0 0 209.63 46.83">
  <style>
    .ft_st0{fill:#fff}.ft_st1{fill:#f58220}
  </style>
  <path d="M69.88 15.01c.28.21.48.65.6 1.33.06.31.17.45.34.44.21-.02.31-.17.3-.46a9.56 9.56 0 0 0-.09-.7 7.32 7.32 0 0 1-.07-1.23c0-.56-.06-.9-.17-1.01-.11-.11-.43-.17-.95-.17H54.41c-.33 0-.54.07-.64.21-.1.14-.15.43-.15.86 0 .45-.07 1.01-.22 1.7-.11.53-.17.9-.17 1.1 0 .25.09.38.26.39.17.01.3-.17.39-.54.19-.86.46-1.45.81-1.76.35-.31.91-.47 1.68-.47h3.8c.36 0 .6.05.7.14.1.1.15.32.15.66l.01.37V30.1c0 .8-.13 1.36-.39 1.67-.26.31-.76.51-1.49.61-.32.04-.47.13-.47.28 0 .21.14.31.43.31l.96-.09c.28-.03.62-.04 1.02-.04l1.12-.01 1.05.01a11.2 11.2 0 0 1 1.99.13c.27 0 .4-.1.4-.31 0-.16-.17-.27-.5-.32-1.2-.21-1.83-.88-1.88-2l-.01-.56V15.72c0-.45.05-.73.16-.85.11-.11.38-.17.8-.17h4.03c.82 0 1.36.11 1.63.31zm7.78-.54c.17-.15.55-.22 1.15-.22h2.25c1.48 0 2.5.07 3.05.22.55.14.92.43 1.1.86.11.28.17.57.17.87v.37c0 .3.09.44.28.43.17-.01.27-.08.32-.22.05-.14.1-.48.15-1.04l.06-.84a21.5 21.5 0 0 1 .15-1.47c0-.28-.16-.41-.47-.41a12.46 12.46 0 0 1-1.6.12l-2.04.1c-.9.04-1.93.06-3.1.06-1.92 0-3.57-.08-4.93-.23-.4-.05-.72-.07-.96-.07-.43 0-.65.13-.65.39 0 .18.14.27.42.27.87 0 1.46.24 1.76.71.3.47.45 1.4.45 2.76v12.14l-.01.93c0 1.15-.34 1.82-1.03 2.01l-.54.16c-.25.07-.37.18-.37.34 0 .21.15.31.46.31a25.59 25.59 0 0 1 4.29-.27c1.19 0 2.71.09 4.53.26.47.04.84.06 1.12.06 1.28 0 2.34-.51 3.18-1.54.7-.86 1.05-1.6 1.05-2.21 0-.26-.09-.38-.26-.37-.11.01-.22.1-.32.26-1.07 1.69-3.48 2.54-7.23 2.54-1.18 0-1.92-.1-2.21-.3-.29-.2-.44-.71-.44-1.52V24.6l-.01-.47c0-.29.08-.48.24-.57.16-.1.47-.14.94-.14h3.16c.82 0 1.4.11 1.75.34.34.23.57.66.69 1.3l.09.4c.04.21.16.32.37.32.19 0 .28-.12.28-.36l-.03-.41c-.06-.57-.09-1.15-.09-1.73 0-.76.04-1.61.13-2.53l.02-.31c0-.25-.09-.38-.28-.39-.2-.01-.32.11-.37.34-.12.63-.26 1.03-.42 1.2-.15.17-.49.31-1 .42-.58.11-1.38.17-2.38.17h-2.21c-.41 0-.66-.05-.74-.14-.08-.09-.12-.36-.12-.8v-5.79c-.06-.5.03-.83.2-.98zm29.09 3.29v-1.55c0-.92.09-1.54.28-1.88.19-.33.57-.57 1.15-.72.2-.06.3-.15.29-.27-.02-.2-.15-.3-.4-.3-.16 0-.4.03-.7.09-.35.06-.83.09-1.42.09a26.56 26.56 0 0 1-3.25-.14c-.28 0-.42.09-.42.27 0 .19.14.3.42.35.98.16 1.67.41 2.04.75.38.34.61.92.71 1.73l.17 3.3-.01 1.94v7.1c-.01.17-.06.26-.16.27-.06.01-.19-.11-.4-.34l-13.2-14.96c-.24-.28-.48-.42-.72-.42l-.53.01-.23.01-.96-.03-.59-.01-.23-.01c-.21 0-.32.09-.32.27 0 .18.13.28.39.32.99.13 1.75.68 2.28 1.63.53.95.79 2.26.79 3.91v9.76c0 1.03-.14 1.78-.42 2.25-.28.46-.82.83-1.63 1.11-.28.09-.41.21-.4.35.02.18.15.27.4.27.11 0 .28-.02.53-.05.33-.04.69-.07 1.06-.07l.69-.03 1.46.07a18.38 18.38 0 0 1 1.68.12c.2 0 .3-.09.3-.28 0-.21-.16-.33-.47-.36-.76-.11-1.26-.29-1.52-.53-.26-.24-.42-.67-.49-1.31l-.04-1.02.01-.6v-9.73c0-.43.09-.65.27-.65.08 0 .14.03.2.09l.14.16 12.09 13.82.32.37a.5.5 0 0 0 .33.13c.22.01.35-.1.4-.34.05-.23.07-.89.07-1.97V18.71l.04-.95zm20.8 0v-1.55c0-.92.09-1.54.28-1.88.19-.33.57-.57 1.15-.72.2-.06.3-.15.29-.27-.02-.2-.15-.3-.4-.3-.16 0-.4.03-.7.09-.35.06-.83.09-1.42.09a26.56 26.56 0 0 1-3.25-.14c-.28 0-.42.09-.42.27 0 .19.14.3.42.35.98.16 1.67.41 2.04.75.38.34.61.92.71 1.73l.17 3.3-.01 1.94v7.1c-.01.17-.06.26-.16.27-.06.01-.19-.11-.4-.34l-13.19-14.94c-.24-.28-.48-.42-.72-.42l-.53.01-.23.01-.96-.03-.59-.01-.23-.01c-.21 0-.32.09-.32.27 0 .18.13.28.39.32.99.13 1.75.68 2.28 1.63.53.95.79 2.26.79 3.91v9.76c0 1.03-.14 1.78-.42 2.25-.28.46-.82.83-1.63 1.11-.28.09-.41.21-.4.35.02.18.15.27.4.27.11 0 .28-.02.53-.05.33-.04.69-.07 1.06-.07l.69-.03 1.46.07a18.38 18.38 0 0 1 1.68.12c.2 0 .3-.09.3-.28 0-.21-.16-.33-.47-.36-.76-.11-1.26-.29-1.52-.53-.26-.24-.42-.67-.49-1.31l-.04-1.02.01-.6v-9.73c0-.43.09-.65.27-.65.08 0 .14.03.2.09l.14.16 12.09 13.82.32.37a.5.5 0 0 0 .33.13c.22.01.35-.1.4-.34.05-.23.07-.89.07-1.97V18.71l.03-.95zm7.85-3.29c.17-.15.55-.22 1.15-.22h2.25c1.48 0 2.5.07 3.05.22.55.14.92.43 1.1.86.11.28.17.57.17.87v.37c0 .3.09.44.28.43.17-.01.27-.08.32-.22.05-.14.1-.48.15-1.04l.06-.84a21.5 21.5 0 0 1 .15-1.47c0-.28-.16-.41-.47-.41a12.46 12.46 0 0 1-1.6.12l-2.04.1c-.9.04-1.93.06-3.1.06-1.92 0-3.57-.08-4.93-.23-.4-.05-.72-.07-.96-.07-.43 0-.65.13-.65.39 0 .18.14.27.42.27.87 0 1.46.24 1.76.71.3.47.45 1.4.45 2.76v12.14l-.01.93c0 1.15-.34 1.82-1.03 2.01l-.54.16c-.25.07-.37.18-.37.34 0 .21.15.31.46.31a25.59 25.59 0 0 1 4.29-.27c1.19 0 2.71.09 4.53.26.47.04.84.06 1.12.06 1.28 0 2.34-.51 3.18-1.54.7-.86 1.05-1.6 1.05-2.21 0-.26-.09-.38-.26-.37-.11.01-.22.1-.32.26-1.07 1.69-3.48 2.54-7.23 2.54-1.18 0-1.92-.1-2.21-.3-.29-.2-.44-.71-.44-1.52V24.6l-.01-.47c0-.29.08-.48.24-.57.16-.1.47-.14.94-.14h3.16c.82 0 1.4.11 1.75.34.34.23.57.66.69 1.3l.09.4c.04.21.16.32.37.32.19 0 .28-.12.28-.36l-.03-.41c-.06-.57-.09-1.15-.09-1.73 0-.76.04-1.61.13-2.53l.02-.31c0-.25-.09-.38-.28-.39-.2-.01-.32.11-.37.34-.12.63-.26 1.03-.42 1.2-.15.17-.49.31-1 .42-.58.11-1.38.17-2.38.17H136c-.41 0-.66-.05-.74-.14-.08-.09-.12-.36-.12-.8v-5.79c0-.5.08-.83.26-.98zm14.71-.18a4.73 4.73 0 0 0-1.73 3.78c0 1.39.44 2.51 1.32 3.38.88.87 2.38 1.66 4.5 2.38 2.05.69 3.29 1.22 3.72 1.59a3.41 3.41 0 0 1 1.26 2.68 3.6 3.6 0 0 1-1.37 2.83 4.94 4.94 0 0 1-3.34 1.16c-1.3 0-2.5-.4-3.6-1.21a5.53 5.53 0 0 1-2.17-2.99c-.14-.46-.29-.69-.47-.7-.19-.01-.29.13-.29.42 0 .36.12.98.37 1.84l.36 1.3c.11.54.2.87.26 1s.17.25.34.37a6.1 6.1 0 0 0 1.94.73c.88.21 1.69.32 2.43.32 2.04 0 3.7-.57 5-1.7a5.56 5.56 0 0 0 1.95-4.38c0-2.64-1.77-4.53-5.3-5.69a36.11 36.11 0 0 1-3.42-1.25 3.8 3.8 0 0 1-1.28-1.09 3.3 3.3 0 0 1-.67-2.08c0-.91.35-1.67 1.04-2.27a3.75 3.75 0 0 1 2.58-.91c1.3 0 2.47.34 3.52 1.01a4.82 4.82 0 0 1 2.09 2.56c.16.46.31.69.47.69.2 0 .31-.15.31-.44 0-.08-.02-.27-.07-.59l-.23-1.48a17.7 17.7 0 0 1-.19-1.45c0-.48-.12-.71-.36-.7-.08 0-.13.02-.16.06l-.2.17a.5.5 0 0 1-.34.14.62.62 0 0 1-.26-.06l-.99-.42a6.67 6.67 0 0 0-2.6-.44 6.47 6.47 0 0 0-4.42 1.44zm15.44 0a4.73 4.73 0 0 0-1.73 3.78c0 1.39.44 2.51 1.32 3.38.88.87 2.38 1.66 4.5 2.38 2.05.69 3.29 1.22 3.72 1.59a3.41 3.41 0 0 1 1.26 2.68 3.6 3.6 0 0 1-1.37 2.83 4.94 4.94 0 0 1-3.34 1.16c-1.3 0-2.5-.4-3.6-1.21a5.53 5.53 0 0 1-2.17-2.99c-.14-.46-.29-.69-.47-.7-.19-.01-.29.13-.29.42 0 .36.12.98.37 1.84l.36 1.3c.11.54.2.87.26 1s.17.25.34.37a6.1 6.1 0 0 0 1.94.73c.88.21 1.69.32 2.43.32 2.04 0 3.7-.57 5-1.7a5.56 5.56 0 0 0 1.95-4.38c0-2.64-1.77-4.53-5.3-5.69a36.11 36.11 0 0 1-3.42-1.25 3.8 3.8 0 0 1-1.28-1.09 3.3 3.3 0 0 1-.67-2.08c0-.91.35-1.67 1.04-2.27a3.75 3.75 0 0 1 2.58-.91c1.3 0 2.47.34 3.52 1.01a4.82 4.82 0 0 1 2.09 2.56c.16.46.31.69.47.69.2 0 .31-.15.31-.44 0-.08-.02-.27-.07-.59l-.23-1.48a17.7 17.7 0 0 1-.19-1.45c0-.48-.12-.71-.36-.7-.08 0-.13.02-.16.06l-.2.17a.5.5 0 0 1-.34.14.62.62 0 0 1-.26-.06l-.99-.42a6.67 6.67 0 0 0-2.6-.44 6.49 6.49 0 0 0-4.42 1.44zm17.43.18c.17-.15.55-.22 1.15-.22h2.25c1.48 0 2.5.07 3.05.22.55.14.92.43 1.1.86.11.28.17.57.17.87v.37c0 .3.09.44.28.43.17-.01.27-.08.32-.22.05-.14.1-.48.15-1.04l.06-.84a21.5 21.5 0 0 1 .15-1.47c0-.28-.16-.41-.47-.41a12.46 12.46 0 0 1-1.6.12l-2.04.1c-.9.04-1.93.06-3.1.06-1.92 0-3.57-.08-4.93-.23-.4-.05-.72-.07-.96-.07-.43 0-.65.13-.65.39 0 .18.14.27.42.27.87 0 1.46.24 1.76.71.3.47.45 1.4.45 2.76v12.14l-.01.93c0 1.15-.34 1.82-1.03 2.01l-.54.16c-.25.07-.37.18-.37.34 0 .21.15.31.46.31a25.59 25.59 0 0 1 4.29-.27c1.19 0 2.71.09 4.53.26.47.04.84.06 1.12.06 1.28 0 2.34-.51 3.18-1.54.7-.86 1.05-1.6 1.05-2.21 0-.26-.09-.38-.26-.37-.11.01-.22.1-.32.26-1.07 1.69-3.48 2.54-7.23 2.54-1.18 0-1.92-.1-2.21-.3-.29-.2-.44-.71-.44-1.52V24.6l-.01-.47c0-.29.08-.48.24-.57.16-.1.47-.14.94-.14h3.16c.82 0 1.4.11 1.75.34.34.23.57.66.69 1.3l.09.4c.04.21.16.32.37.32.19 0 .28-.12.28-.36l-.03-.41c-.06-.57-.09-1.15-.09-1.73 0-.76.04-1.61.13-2.53l.02-.31c0-.25-.09-.38-.28-.39-.2-.01-.32.11-.37.34-.12.63-.26 1.03-.42 1.2-.15.17-.49.31-1 .42-.58.11-1.38.17-2.38.17h-2.21c-.41 0-.66-.05-.74-.14-.08-.09-.12-.36-.12-.8v-5.79c-.06-.5.03-.83.2-.98zm16.44 0c.17-.15.55-.22 1.15-.22h2.25c1.48 0 2.5.07 3.05.22.55.14.92.43 1.1.86.11.28.17.57.17.87v.37c0 .3.09.44.28.43.17-.01.27-.08.32-.22.05-.14.1-.48.15-1.04l.06-.84a21.5 21.5 0 0 1 .15-1.47c0-.28-.16-.41-.47-.41a12.46 12.46 0 0 1-1.6.12l-2.04.1c-.9.04-1.93.06-3.1.06-1.92 0-3.57-.08-4.93-.23-.4-.05-.72-.07-.96-.07-.43 0-.65.13-.65.39 0 .18.14.27.42.27.87 0 1.46.24 1.76.71.3.47.45 1.4.45 2.76v12.14l-.01.93c0 1.15-.34 1.82-1.03 2.01l-.54.16c-.25.07-.37.18-.37.34 0 .21.15.31.46.31a25.59 25.59 0 0 1 4.29-.27c1.19 0 2.71.09 4.53.26.47.04.84.06 1.12.06 1.28 0 2.34-.51 3.18-1.54.7-.86 1.05-1.6 1.05-2.21 0-.26-.09-.38-.26-.37-.11.01-.22.1-.32.26-1.07 1.69-3.48 2.54-7.23 2.54-1.18 0-1.92-.1-2.21-.3-.29-.2-.44-.71-.44-1.52V24.6l-.01-.47c0-.29.08-.48.24-.57.16-.1.47-.14.94-.14h3.16c.82 0 1.4.11 1.75.34.34.23.57.66.69 1.3l.09.4c.04.21.16.32.37.32.19 0 .28-.12.28-.36l-.03-.41c-.06-.57-.09-1.15-.09-1.73 0-.76.04-1.61.13-2.53l.02-.31c0-.25-.09-.38-.28-.39-.2-.01-.32.11-.37.34-.12.63-.26 1.03-.42 1.2-.15.17-.49.31-1 .42-.58.11-1.38.17-2.38.17h-2.21c-.41 0-.66-.05-.74-.14-.08-.09-.12-.36-.12-.8v-5.79c-.06-.5.03-.83.2-.98zM58.86 1.07c.16-.1.56-.15 1.21-.15.48 0 .85.09 1.1.26.25.18.43.46.51.86.04.16.11.24.2.24.12 0 .17-.07.17-.21 0-.14-.01-.32-.04-.54a4.98 4.98 0 0 1-.06-.52l-.03-.46c-.01-.2-.14-.29-.37-.29l-.43.01c-1.12.06-2.18.08-3.18.08L56.39.33l-1.3-.01-.71-.02-.22-.01c-.16 0-.25.08-.27.25l-.04.39-.09.57-.06.56c-.04.21-.06.38-.06.5-.01.13.06.2.2.2.1 0 .17-.09.22-.26l.05-.18c.13-.47.23-.76.3-.88.07-.12.22-.22.45-.32.31-.12.89-.19 1.75-.19.36 0 .54.17.54.51v5.68l.01.3c0 .38-.09.68-.27.9-.18.22-.44.34-.77.36-.13.01-.21.03-.25.06-.04.03-.06.09-.06.19 0 .11.06.17.19.17l.31-.03 1.41-.08a13 13 0 0 1 .93-.01l.8.05.48.02.16.01c.13 0 .2-.05.2-.15 0-.14-.08-.21-.23-.23-.53-.03-.9-.2-1.11-.5-.21-.3-.31-.81-.31-1.53V1.81c-.02-.39.06-.64.22-.74zm12.25 3.72c.06.09.08.34.08.76v1.4l-.01.34a2 2 0 0 1-.19.99.83.83 0 0 1-.62.4c-.11.01-.16.07-.16.16 0 .14.07.21.2.21l.49-.04a9.59 9.59 0 0 1 2.45.02c.22.03.37.04.45.04.22 0 .33-.07.33-.2 0-.11-.08-.17-.24-.17-.44 0-.76-.13-.95-.4-.19-.27-.29-.7-.29-1.31V1.5c0-.55.25-.87.75-.95.12-.02.19-.08.19-.18 0-.12-.08-.18-.23-.18l-.7.04a8.7 8.7 0 0 1-2.65-.05c-.14 0-.2.06-.2.19 0 .1.06.17.18.19l.29.06c.6.11.9.44.9.98V3c0 .47-.03.76-.09.87-.06.1-.22.16-.48.16h-2.99c-.35 0-.56-.04-.62-.11-.06-.07-.09-.33-.09-.76V1.5c0-.55.25-.87.75-.95.12-.02.19-.08.19-.18 0-.12-.08-.18-.23-.18l-.7.04a8.45 8.45 0 0 1-2.64-.05c-.14 0-.2.06-.2.19 0 .1.06.16.18.19.46.09.77.21.94.35.17.15.25.38.25.69v5.33l-.01.35a2 2 0 0 1-.19.99.83.83 0 0 1-.62.4c-.11.01-.16.07-.16.16 0 .14.07.21.2.21l.49-.04a9.59 9.59 0 0 1 2.45.02l.45.04c.22 0 .33-.07.33-.2 0-.11-.07-.17-.22-.17-.45 0-.77-.13-.97-.4-.2-.27-.29-.7-.29-1.31V5.4c0-.34.04-.54.11-.62.07-.08.26-.12.56-.12h3.03c.28 0 .44.04.5.13zm7.8-3.31c0-.36.11-.58.33-.65l.43-.05h.78c.69 0 1.19.1 1.5.29.31.19.46.5.46.92 0 .19.04.29.12.28.17-.01.25-.17.25-.5a12.22 12.22 0 0 0-.09-1.32c0-.14-.06-.21-.19-.21l-.09.01c-.31.03-1.17.05-2.57.05L77.42.27l-.65-.03-.31-.01-.19-.01c-.14 0-.21.05-.21.15 0 .11.06.17.17.19.49.07.81.19.97.36.16.17.23.49.23.97v5.06c0 .39-.02.69-.07.92-.05.27-.12.45-.21.56-.09.1-.25.2-.5.3-.1.04-.14.1-.14.18.01.1.06.14.17.14l.38-.02c.64-.03 1.11-.05 1.42-.05.46 0 .83.01 1.11.04l.74.07c.33.03.64.05.91.05.46 0 .84-.07 1.12-.21.28-.14.52-.38.7-.71.23-.39.34-.8.34-1.22 0-.06-.02-.1-.05-.14-.04-.04-.08-.05-.12-.04-.02 0-.05.03-.08.08-.53 1.05-1.66 1.58-3.4 1.58-.2 0-.36-.03-.45-.1a.88.88 0 0 1-.26-.39 4.4 4.4 0 0 1-.14-1.3v-.58c0-.46.01-.8.04-1.01.03-.19.08-.31.15-.37.07-.06.21-.09.42-.09h.43c.44 0 .74.01.9.04.16.03.3.1.41.2.2.19.33.46.38.82.03.17.09.25.2.24.05 0 .09-.02.1-.04a.29.29 0 0 0 .02-.12l-.01-.33c0-.24-.01-.53-.04-.86a16.26 16.26 0 0 1-.05-1.24l.02-.28c0-.12-.05-.18-.14-.17-.09 0-.15.04-.19.12l-.14.31c-.23.46-.56.7-.98.7h-.54l-.28.01-.19.01c-.22 0-.36-.05-.42-.16a1.92 1.92 0 0 1-.09-.75v-1.4l.01-.26zM97.06.36c0 .13.08.19.25.19.38 0 .68.11.9.33.22.22.35.53.37.92l.03 1.31v.52c0 1.18-.07 2.09-.21 2.72a2.73 2.73 0 0 1-.73 1.44c-.51.49-1.17.73-2 .73-.81 0-1.47-.24-1.98-.71a2.17 2.17 0 0 1-.67-1.12c-.11-.44-.16-1.17-.16-2.2l-.01-1.13.1-1.61c.02-.41.08-.69.17-.83.09-.14.26-.24.52-.29.13-.03.21-.05.24-.08s.05-.07.05-.14c0-.13-.11-.19-.33-.19l-.44.03c-.51.05-.97.07-1.39.07A15.07 15.07 0 0 1 90.26.2c-.14 0-.22.06-.22.17 0 .1.08.17.25.2.26.04.49.11.7.2.18.09.3.19.35.31.06.12.09.32.09.61l.02 1.16-.07 2.47c0 1.61.41 2.69 1.22 3.25.6.41 1.45.61 2.53.61 1.54 0 2.63-.5 3.27-1.49.27-.41.46-.99.59-1.74.12-.75.18-1.75.18-2.98l.01-.79-.01-.56c0-.66.17-1.01.5-1.07l.24-.04c.11-.02.16-.07.16-.16 0-.11-.06-.17-.17-.17l-.21.01-.56.06-.63.03-.68-.03a5.77 5.77 0 0 1-.51-.04L97.18.2c-.08.01-.12.06-.12.16zm8.63.99-.44-.52a5.07 5.07 0 0 0-.49-.53.5.5 0 0 0-.31-.09l-.35.02c-.38.04-.74.06-1.07.06l-.27.01-.44-.02c-.15 0-.22.06-.22.18 0 .1.07.15.2.16.97.07 1.45.76 1.45 2.07v2.77l-.04 1.52c0 .52-.07.92-.21 1.2-.14.28-.37.46-.68.55-.12.03-.19.1-.19.18 0 .1.06.16.17.16a6.63 6.63 0 0 1 1.48-.13 7.2 7.2 0 0 1 1.44.12c.13 0 .2-.06.2-.2 0-.1-.06-.15-.19-.16-.69-.06-1.11-.33-1.25-.81-.13-.45-.2-1.33-.2-2.66V2.76l.01-.19c0-.19.05-.29.15-.29.04 0 .11.06.21.17l5.82 6.46c.08.09.16.14.24.14.09 0 .13-.05.13-.17l-.03-.8-.01-.48.01-.71.03-.55.09-3.99v-.32c0-.87.28-1.36.82-1.46.14-.02.2-.09.2-.2 0-.12-.07-.18-.21-.18l-.19.01c-.64.08-1.11.12-1.4.12-.15 0-.33-.01-.55-.04a7.22 7.22 0 0 0-.74-.06c-.12 0-.19.06-.19.17 0 .09.07.14.21.15.59.04.99.24 1.19.59.2.35.3 1.03.3 2.03 0 .85-.02 1.75-.06 2.69-.01.26-.06.39-.15.39-.1 0-.29-.16-.58-.49l-.22-.24L106 1.72l-.31-.37zm11.35.24c0-.37.04-.61.13-.73s.28-.2.59-.26c.09-.01.14-.03.16-.06.02-.03.03-.08.03-.16 0-.1-.07-.16-.21-.16-.23 0-.57.02-1.01.05l-.47.04A10.48 10.48 0 0 1 114.6.3a2.06 2.06 0 0 0-.35-.05c-.1 0-.15.05-.15.18 0 .08.03.13.09.17.06.03.2.07.42.1.36.06.61.17.75.33.14.17.2.44.2.84v5.09l-.01.57c0 .37-.05.64-.15.79-.1.16-.3.29-.61.41l-.19.15.01.05c.03.09.09.14.18.14s.25-.02.46-.06c.25-.04.58-.07 1.01-.07.35 0 .79.03 1.35.09l.51.03c.28 0 .42-.06.42-.19s-.1-.2-.31-.2c-.32 0-.58-.09-.78-.26a1.2 1.2 0 0 1-.37-.75l-.05-.64V1.59h.01zm6.03-.44c0-.31.16-.49.47-.55.18-.03.27-.1.27-.2 0-.12-.06-.18-.18-.18l-.56.03-.67.03-1.07-.03c-.29 0-.54-.01-.76-.04l-.19-.01c-.12 0-.18.06-.18.18 0 .11.09.18.26.21.3.06.53.22.71.47.17.25.41.77.7 1.55.25.67.56 1.42.93 2.27l1.52 3.44.16.39.15.33c.05.1.11.15.19.15.12 0 .22-.1.3-.29l.39-.82.58-1.27 1.09-2.41.95-2.2c.29-.65.51-1.08.67-1.29a.98.98 0 0 1 .6-.38c.13-.03.19-.09.19-.19 0-.11-.04-.16-.11-.16l-.26.03a5.9 5.9 0 0 1-1.65.05l-.67-.04-.36-.01c-.11 0-.16.05-.16.15 0 .1.07.16.22.18.35.05.61.16.8.33.19.17.28.38.28.65 0 .46-.24 1.22-.71 2.27l-1.44 3.19c-.06.12-.11.18-.15.18-.05 0-.11-.08-.17-.24l-1.43-3.49a7.62 7.62 0 0 1-.71-2.28zm10.99.33c0-.36.11-.58.33-.65l.43-.05h.78c.69 0 1.19.1 1.5.29.31.19.46.5.46.92 0 .19.04.29.12.28.17-.01.25-.17.25-.5a12.22 12.22 0 0 0-.09-1.32c0-.14-.06-.21-.19-.21l-.09.01c-.32.04-1.18.06-2.58.06l-2.42-.03-.65-.03-.31-.01-.19-.01c-.14 0-.21.05-.21.15 0 .11.06.17.17.19.49.07.81.19.97.36.16.17.23.49.23.97v5.06c0 .39-.02.69-.07.92-.05.27-.12.45-.21.56-.09.1-.25.2-.5.3-.1.04-.15.1-.14.18.01.1.06.14.17.14l.38-.02c.64-.04 1.11-.06 1.42-.06.46 0 .83.01 1.11.04l.74.07c.33.03.64.05.91.05.46 0 .84-.07 1.12-.21.28-.14.52-.38.7-.71.23-.39.34-.8.34-1.22 0-.06-.02-.1-.05-.14-.04-.04-.08-.05-.12-.04-.02 0-.05.03-.08.08-.53 1.05-1.66 1.58-3.4 1.58-.2 0-.36-.03-.45-.1a.88.88 0 0 1-.26-.39 4.4 4.4 0 0 1-.14-1.3v-.58c0-.46.01-.8.04-1.01.03-.19.08-.31.15-.37.07-.06.21-.09.42-.09h.43c.44 0 .74.01.9.04.16.03.3.1.41.2.2.19.33.46.38.82.03.17.09.25.2.24.05 0 .09-.02.1-.04a.29.29 0 0 0 .02-.12l-.01-.33c0-.24-.01-.53-.04-.86a16.26 16.26 0 0 1-.05-1.24l.02-.28c0-.12-.05-.18-.14-.17-.09 0-.15.04-.19.12l-.15.31c-.23.46-.56.7-.98.7h-.54l-.28.01-.19.01c-.22 0-.36-.05-.42-.16a1.92 1.92 0 0 1-.09-.75v-1.4l.03-.26zm9.23 3.75c0-.17.03-.27.1-.31l.29-.05h.4c.34 0 .58.06.73.19.15.13.34.43.57.9.59 1.2 1.07 2.01 1.44 2.44.37.43.77.65 1.21.65.27 0 .58-.08.93-.24.35-.16.52-.3.52-.42 0-.1-.04-.15-.12-.15l-.14.02c-.09.02-.18.03-.28.03a.91.91 0 0 1-.62-.23 3.09 3.09 0 0 1-.6-.82l-.66-1.17-.57-1.01-.17-.3a.3.3 0 0 1-.06-.15c0-.05.04-.09.12-.13.41-.18.74-.44.98-.79.24-.35.35-.73.35-1.15 0-.67-.27-1.23-.8-1.67a3.04 3.04 0 0 0-2.01-.66c-.27 0-.77.03-1.49.08a19.5 19.5 0 0 1-2.65.02l-.23-.02c-.12 0-.18.06-.18.18s.09.19.26.22c.47.06.81.23 1.02.52.13.17.19.52.19 1.03v4.62l-.01.25v.59c0 .31-.06.54-.17.69-.11.15-.31.27-.6.36-.09.03-.13.09-.13.18 0 .12.08.18.23.18l.25-.02.43-.04.54-.05c.22-.02.48-.02.76-.02.34 0 .69.02 1.06.04l.26.02c.14 0 .22-.06.22-.18s-.09-.19-.27-.21c-.44-.04-.73-.21-.88-.49a4.06 4.06 0 0 1-.22-1.64V5.23zm.17-4.37c.11-.12.31-.18.6-.18a2.16 2.16 0 0 1 2.24 2.23c0 .49-.16.88-.47 1.16-.16.14-.33.23-.51.26s-.65.04-1.41.04c-.26 0-.43-.04-.5-.11s-.11-.25-.11-.52V1.53c-.01-.32.05-.55.16-.67zm8.76-.04a2.43 2.43 0 0 0-.69 1.77c0 .61.16 1.09.49 1.46.33.36.95.75 1.87 1.16l.97.43c.44.19.74.4.92.61.18.22.27.49.27.83 0 .43-.17.8-.51 1.13a1.6 1.6 0 0 1-1.16.49c-.56 0-1.09-.25-1.61-.75a4.04 4.04 0 0 1-1.09-1.84c-.03-.1-.07-.15-.13-.15-.13 0-.2.1-.2.31 0 .16.08.53.24 1.11.11.38.17.67.19.87.02.18.05.29.08.33.03.04.15.07.34.11.14.03.36.09.66.19.64.2 1.11.3 1.4.3.72 0 1.35-.28 1.89-.83.54-.55.81-1.2.81-1.94 0-.67-.19-1.25-.58-1.73-.33-.4-1-.8-2.01-1.22a6.44 6.44 0 0 1-1.52-.75 1.14 1.14 0 0 1-.38-.85c0-.35.14-.66.43-.92s.62-.39 1.01-.39c.56 0 1.09.22 1.59.65.5.43.81.95.94 1.54.03.16.09.24.17.24.11 0 .16-.09.16-.28l-.01-.13-.06-.58-.08-.63-.01-.23.01-.52c0-.14-.04-.21-.13-.21a.2.2 0 0 0-.1.03l-.24.12a.43.43 0 0 1-.19.04c-.08 0-.22-.04-.41-.12l-.43-.18a3.22 3.22 0 0 0-1.18-.23c-.7.05-1.27.29-1.72.76zm9.8.77c0-.37.04-.61.13-.73s.28-.2.59-.26c.09-.01.14-.03.16-.06.02-.03.03-.08.03-.16 0-.1-.07-.16-.21-.16-.23 0-.57.02-1.01.05l-.47.04a10.48 10.48 0 0 1-1.66-.01 2.06 2.06 0 0 0-.35-.05c-.1 0-.15.05-.15.18 0 .08.03.13.09.17.06.03.2.07.42.1.36.06.61.17.75.33s.2.44.2.84v5.09l-.01.57c0 .37-.05.64-.15.79-.1.16-.3.29-.61.41l-.19.15.01.05c.03.09.09.14.18.14s.25-.02.46-.06c.25-.04.58-.07 1.01-.07.35 0 .8.03 1.35.09l.51.03c.28 0 .42-.06.42-.19s-.1-.2-.31-.2c-.32 0-.58-.09-.78-.26a1.2 1.2 0 0 1-.37-.75l-.05-.64V1.59h.01zm8.35-.52c.16-.1.56-.15 1.21-.15.48 0 .85.09 1.1.26.25.18.43.46.51.86.04.16.11.24.2.24.12 0 .17-.07.17-.21 0-.14-.02-.32-.04-.54a4.98 4.98 0 0 1-.06-.52l-.03-.46c-.01-.2-.14-.29-.37-.29l-.43.01c-1.12.06-2.18.08-3.18.08L167.9.33l-1.3-.01-.71-.02-.22-.01c-.16 0-.25.08-.27.25l-.04.39-.08.57-.06.56c-.04.21-.06.38-.06.5-.01.13.06.2.2.2.1 0 .17-.09.22-.26l.05-.18c.13-.47.23-.76.3-.88.07-.12.22-.22.45-.32.31-.12.89-.19 1.75-.19.36 0 .54.17.54.51v5.68l.01.3c0 .38-.09.68-.27.9-.18.22-.44.34-.77.36-.13.01-.21.03-.25.06-.04.03-.06.09-.06.19 0 .11.06.17.19.17l.31-.03 1.41-.08a13 13 0 0 1 .93-.01l.8.05.48.02.16.01c.13 0 .2-.05.2-.15 0-.14-.08-.21-.23-.23-.53-.03-.9-.2-1.11-.5-.21-.3-.31-.81-.31-1.53V1.81c-.03-.39.05-.64.21-.74zm10.08 4.08c.02-.08.07-.19.16-.32.45-.71.95-1.59 1.49-2.63.3-.58.55-.98.75-1.19.2-.21.46-.35.78-.43.15-.03.23-.1.23-.19 0-.1-.06-.15-.17-.15l-.51.01-.54.03-.47.02a5.6 5.6 0 0 1-.64-.03l-.42-.06-.33-.02c-.11 0-.17.07-.17.2 0 .09.07.14.2.16.27.03.51.12.72.27.21.16.31.33.31.5 0 .21-.23.74-.7 1.58l-.43.78c-.22.43-.4.65-.53.65-.14 0-.28-.15-.42-.45l-.38-.74-.5-.97c-.31-.6-.47-1-.47-1.17 0-.22.16-.36.49-.43.14-.03.22-.09.22-.18 0-.11-.09-.16-.27-.16-.09 0-.27.01-.53.04a9.5 9.5 0 0 1-2.3-.02 4 4 0 0 0-.5-.04c-.12 0-.18.07-.18.2 0 .11.08.17.24.18.52.05.97.44 1.36 1.17l.97 1.83c.27.51.51.95.74 1.32.19.31.28.6.28.89v1.22c0 .57-.08.97-.25 1.2-.17.23-.49.38-.97.46-.12.02-.18.07-.18.14 0 .14.05.21.15.21a10.74 10.74 0 0 1 2.72-.08l.91.08.33.02c.19 0 .29-.06.29-.19 0-.11-.07-.17-.2-.18-.78-.04-1.21-.3-1.28-.79l-.03-.43V5.59c0-.21.01-.36.03-.44zM193.3.49c-.64.26-1.16.62-1.58 1.07a4.98 4.98 0 0 0-1.16 3.17c0 1.35.41 2.43 1.24 3.24s1.93 1.21 3.31 1.21a4.3 4.3 0 0 0 3.4-1.4 5.08 5.08 0 0 0 1.27-3.48 4 4 0 0 0-1.23-3.05 4.51 4.51 0 0 0-3.22-1.16c-.72.01-1.39.14-2.03.4zm3.65.92c.4.38.73.88.97 1.52s.36 1.29.36 1.96c0 1.16-.26 2.09-.79 2.78a2.5 2.5 0 0 1-2.1 1.04c-.97 0-1.75-.42-2.36-1.26a5.42 5.42 0 0 1-.91-3.26c0-1.13.24-2.02.72-2.65a2.36 2.36 0 0 1 2.01-.95c.82-.01 1.51.27 2.1.82zm7.58.02c0-.23.05-.39.14-.48.1-.09.27-.14.51-.14l.26-.01.83.01c.95 0 1.51.28 1.69.84.02.06.03.14.03.22v.22c0 .12.04.18.13.18.16 0 .24-.18.24-.53l-.02-.25-.05-.49-.04-.47c-.01-.22-.07-.33-.17-.33l-.49.03c-.6.05-1.19.07-1.76.07l-1.68.01-1.1.02c-.29 0-.56-.01-.81-.03l-.33-.02c-.15 0-.22.06-.22.19 0 .1.06.15.17.16.41.02.72.13.93.31.19.16.28.51.28 1.05v5.25c0 .51-.04.87-.13 1.08a.78.78 0 0 1-.52.44c-.12.04-.18.1-.18.18 0 .11.07.17.21.17.11 0 .32-.02.63-.06.23-.03.51-.04.82-.04h.71a9.17 9.17 0 0 1 1.3.06c.09 0 .14-.06.14-.18 0-.1-.07-.16-.2-.18-.49-.04-.81-.16-.97-.38-.22-.29-.33-.75-.33-1.39v-.76l-.01-.51c0-.53.05-.84.15-.92.1-.08.47-.12 1.11-.12.5 0 .85.08 1.05.23.2.15.34.45.43.9.02.12.07.18.15.17.12-.01.17-.06.17-.15l-.01-.27-.1-1.21a9.57 9.57 0 0 1-.04-.87l.01-.2.01-.17c0-.11-.06-.17-.19-.17-.06 0-.1.05-.14.15-.16.4-.32.66-.48.8-.16.14-.4.2-.72.2l-.7.01-.24.01c-.18 0-.3-.04-.36-.12-.06-.08-.09-.24-.09-.48V1.43h-.02zM57.32 39.56c0-.49.04-.82.13-.96.09-.15.32-.27.68-.37.11-.03.16-.08.16-.16 0-.12-.06-.17-.19-.17l-.28.03a13.68 13.68 0 0 1-2.89-.01l-.32-.02c-.12 0-.18.05-.18.15 0 .1.01.16.04.19.02.03.09.05.19.06.33.03.59.11.76.23.18.12.3.29.36.52l.06.36-.01.25v5.13c0 .54-.06.92-.18 1.15-.12.22-.33.36-.64.41-.11.02-.17.07-.17.16 0 .13.08.19.25.19.17 0 .39-.01.66-.04.43-.04.88-.06 1.36-.06.36 0 .65.02.88.06l.4.05c.14 0 .21-.06.21-.19 0-.11-.12-.18-.35-.2-.35-.03-.6-.18-.74-.48a3.67 3.67 0 0 1-.21-1.47v-.27c0-.37.01-.61.04-.73s.1-.23.21-.34l.27-.27.19-.19c.08-.08.14-.12.19-.12.08 0 .17.1.29.29a45.13 45.13 0 0 0 2.49 3.32l.24.3c.18.22.38.33.6.33l.51-.05.43-.03c.29 0 .64.02 1.06.06l.19.01c.13 0 .19-.05.2-.16 0-.11-.05-.18-.15-.21l-.13-.04a3.2 3.2 0 0 1-1.43-.77 31.12 31.12 0 0 1-2.32-2.92l-.46-.63c-.19-.27-.29-.45-.29-.56 0-.14.18-.37.54-.67l.67-.61c.7-.66 1.24-1.12 1.62-1.39a2.4 2.4 0 0 1 1.02-.47c.19-.03.28-.09.28-.19 0-.13-.07-.19-.22-.19-.17 0-.47.03-.91.08a5.25 5.25 0 0 1-1.47-.05 4.89 4.89 0 0 0-.54-.03c-.16 0-.24.05-.24.16 0 .12.07.18.2.18.18 0 .33.04.44.12.11.08.17.18.17.31 0 .38-.59 1.1-1.76 2.16l-.89.79-.63.56c-.17.13-.27.19-.31.19-.07 0-.11-.09-.11-.24v-2.32l.03-.22zM68.81 39l-.44-.52a7.37 7.37 0 0 0-.48-.53.5.5 0 0 0-.31-.09l-.35.02c-.38.04-.74.06-1.07.06l-.27.01-.44-.02c-.15 0-.22.06-.22.18 0 .1.07.15.2.16.97.07 1.45.76 1.45 2.07v2.77l-.04 1.52c0 .52-.07.92-.21 1.2-.14.28-.37.46-.68.55-.12.03-.19.1-.19.18 0 .1.06.16.17.16a6.63 6.63 0 0 1 1.48-.13 7.2 7.2 0 0 1 1.44.12c.13 0 .2-.07.2-.2 0-.1-.06-.15-.19-.16-.69-.06-1.11-.33-1.25-.81-.13-.45-.2-1.33-.2-2.66V40.4l.01-.19c0-.19.05-.29.15-.29.04 0 .11.06.21.17l5.82 6.46c.08.09.16.14.24.14.09 0 .13-.05.13-.17l-.03-.8-.01-.49.01-.71.03-.55.09-3.99v-.31c0-.87.27-1.36.82-1.46.14-.02.2-.09.2-.2 0-.12-.07-.18-.21-.18l-.19.01c-.64.08-1.11.12-1.4.12-.15 0-.33-.01-.55-.04a7.22 7.22 0 0 0-.74-.06c-.12 0-.19.06-.19.17 0 .09.07.14.21.15.59.04.99.24 1.19.59.2.35.3 1.03.3 2.03 0 .85-.02 1.75-.06 2.69-.01.26-.06.39-.15.39-.1 0-.29-.16-.58-.49l-.22-.24-3.38-3.8a5.6 5.6 0 0 0-.3-.35zm10.52-.87c-.64.26-1.16.62-1.58 1.07a4.98 4.98 0 0 0-1.16 3.17c0 1.35.41 2.43 1.24 3.24a4.53 4.53 0 0 0 3.31 1.21 4.3 4.3 0 0 0 3.4-1.4 5.08 5.08 0 0 0 1.27-3.48 4 4 0 0 0-1.23-3.05 4.51 4.51 0 0 0-3.22-1.16c-.72.01-1.39.14-2.03.4zm3.65.92c.4.38.73.88.97 1.52s.36 1.29.36 1.96c0 1.16-.26 2.09-.79 2.78a2.5 2.5 0 0 1-2.1 1.04c-.97 0-1.75-.42-2.36-1.26a5.42 5.42 0 0 1-.91-3.26c0-1.13.24-2.02.72-2.65a2.36 2.36 0 0 1 2.01-.95c.82-.01 1.51.27 2.1.82zm9.58-.99c-.01.11.06.18.22.2l.29.04c.35.05.53.21.53.49 0 .15-.04.29-.13.43s-.31.41-.66.82l-.67.79-.29.34c-.07.08-.12.12-.17.12-.07 0-.18-.09-.31-.28l-.46-.67-.44-.61a2.7 2.7 0 0 1-.47-1.06c-.01-.11.04-.21.14-.3a.7.7 0 0 1 .38-.17c.15-.02.23-.08.23-.2 0-.11-.07-.17-.2-.17l-.41.03-.59.06c-.23.03-.51.04-.83.04-.34 0-.85-.03-1.55-.08l-.36-.02c-.14 0-.2.06-.2.19 0 .11.08.18.24.21.4.08.72.24.97.48s.77.92 1.56 2.03l.73 1c.32.42.48.67.48.76 0 .09-.16.3-.47.64-.21.22-.56.63-1.05 1.21-.56.68-1.01 1.15-1.34 1.42-.33.27-.66.44-.99.51-.12.03-.17.08-.17.17 0 .06.02.09.06.11l.17.03.29-.01.57-.02.58-.02c.52 0 1.04.03 1.56.08l.24.02c.09 0 .13-.05.13-.16s-.07-.17-.21-.18c-.67-.05-1-.25-1-.6 0-.32.49-1.04 1.46-2.14l.39-.45c.07-.08.12-.11.15-.11s.07.04.13.11l.32.42c.54.7.92 1.22 1.13 1.54.21.33.31.57.31.72 0 .29-.17.45-.52.48-.16.01-.24.08-.24.2 0 .1.07.16.22.16l.52-.02.7-.04a10.11 10.11 0 0 1 1.57.02l.8.06.28.01c.15 0 .23-.06.23-.18 0-.13-.07-.2-.22-.21-.47-.03-.86-.2-1.17-.51a18.27 18.27 0 0 1-1.8-2.24c-.44-.64-.72-1.03-.84-1.17-.25-.31-.37-.51-.37-.59 0-.07.1-.21.29-.42l.84-.99c.69-.83 1.31-1.45 1.85-1.88.19-.15.47-.25.85-.31.14-.02.21-.09.21-.2 0-.11-.06-.17-.18-.17l-.4.02-.79.06-.58.02c-.35 0-.73-.01-1.13-.04l-.23-.01c-.09.01-.16.07-.18.19zm8 .73c0-.31.16-.49.47-.55.18-.03.27-.1.27-.2 0-.12-.06-.18-.18-.18l-.56.03-.67.03-1.07-.03c-.29 0-.54-.01-.76-.04l-.19-.01c-.12 0-.18.06-.18.18 0 .11.09.18.26.21.3.06.53.22.71.47.17.25.41.77.7 1.55.25.67.56 1.42.93 2.27l1.52 3.44.16.39.15.33c.05.1.11.15.19.15.12 0 .22-.1.3-.29l.39-.82.58-1.27 1.09-2.41.95-2.2c.29-.65.51-1.08.67-1.29s.36-.33.6-.38c.13-.03.19-.09.19-.19 0-.11-.04-.16-.11-.16l-.26.03a5.9 5.9 0 0 1-1.65.05l-.67-.04-.36-.01c-.11 0-.16.05-.16.15 0 .1.07.16.22.18.35.05.61.16.8.33.19.17.28.38.28.65 0 .46-.24 1.22-.71 2.27l-1.44 3.19c-.06.12-.11.18-.15.18-.05 0-.11-.08-.17-.24l-1.43-3.49a7.95 7.95 0 0 1-.71-2.28zm10.91.44c0-.37.04-.61.13-.73s.28-.2.59-.26c.09-.01.14-.03.16-.06.02-.03.03-.08.03-.16 0-.1-.07-.16-.21-.16-.23 0-.57.02-1.01.05l-.47.04a10.48 10.48 0 0 1-1.66-.01 2.06 2.06 0 0 0-.35-.05c-.1 0-.15.05-.15.18 0 .08.03.13.09.17.06.03.2.07.42.1.36.06.61.17.75.33.14.17.2.44.2.84v5.09l-.01.57c0 .37-.05.64-.15.79-.1.16-.3.29-.61.41l-.19.15.01.05c.03.09.09.14.18.14s.25-.02.46-.06c.25-.04.58-.07 1.01-.07.35 0 .79.03 1.35.09l.51.03c.28 0 .42-.06.42-.19s-.1-.2-.31-.2c-.32 0-.58-.09-.78-.26a1.2 1.2 0 0 1-.37-.75l-.05-.64v-5.43h.01zm6.25-.11c0-.56.22-.86.65-.89.18-.01.28-.07.28-.17 0-.12-.13-.18-.38-.18-.35 0-.69.02-1.02.05a5.22 5.22 0 0 1-1.56.04l-.28-.02a3.47 3.47 0 0 1-.25-.03l-.19-.02c-.13 0-.19.06-.19.19 0 .1.08.17.24.19l.38.06c.57.09.85.47.85 1.15v5.33c0 .5-.05.86-.16 1.07a.8.8 0 0 1-.57.44c-.11.03-.17.08-.17.16 0 .11.06.17.19.17l.35-.03a15.42 15.42 0 0 1 2.4-.08l.7.03.77.04.61.03c.54 0 .96-.19 1.27-.56.35-.43.53-.91.53-1.45 0-.17-.04-.26-.12-.26-.05 0-.16.13-.35.39-.6.85-1.63 1.27-3.07 1.27-.31 0-.52-.03-.62-.08-.19-.1-.29-.54-.29-1.34v-5.5zm8.79 0c0-.56.22-.86.65-.89.18-.01.27-.07.27-.17 0-.12-.13-.18-.38-.18-.35 0-.69.02-1.02.05a5.22 5.22 0 0 1-1.56.04l-.28-.02a3.47 3.47 0 0 1-.25-.03l-.19-.02c-.13 0-.19.06-.19.19 0 .1.08.17.24.19l.38.06c.57.09.85.47.85 1.15v5.33c0 .5-.05.86-.16 1.07a.8.8 0 0 1-.57.44c-.11.03-.17.08-.17.16 0 .11.06.17.19.17l.35-.03a15.42 15.42 0 0 1 2.4-.08l.7.03.77.04.61.03c.54 0 .96-.19 1.27-.56.35-.43.53-.91.53-1.45 0-.17-.04-.26-.12-.26-.05 0-.16.13-.35.39-.6.85-1.63 1.27-3.07 1.27-.31 0-.52-.03-.62-.08-.19-.1-.29-.54-.29-1.34v-5.5h.01zm8.8 0c0-.36.11-.58.33-.65l.43-.05h.78c.69 0 1.19.1 1.5.29.31.19.46.5.46.92 0 .19.04.29.12.28.17-.01.25-.17.25-.5a12.22 12.22 0 0 0-.09-1.32c0-.14-.06-.21-.19-.21l-.09.01c-.32.04-1.18.06-2.58.06l-2.42-.03-.65-.03-.31-.01-.19-.01c-.14 0-.21.05-.21.15 0 .11.06.17.17.19.49.07.81.19.97.36.16.17.23.49.23.97v5.06c0 .39-.02.69-.07.92-.05.27-.12.45-.21.56-.09.1-.25.2-.5.3-.1.04-.14.1-.14.18.01.1.06.14.17.14l.38-.02c.64-.04 1.11-.06 1.42-.06.46 0 .83.01 1.11.04l.74.07c.33.03.64.05.91.05.46 0 .84-.07 1.12-.21.28-.14.52-.38.7-.72.23-.39.34-.8.34-1.22 0-.06-.02-.1-.05-.14-.04-.04-.08-.05-.12-.04-.02 0-.05.03-.08.08-.53 1.05-1.66 1.58-3.4 1.58-.2 0-.36-.03-.45-.1a.88.88 0 0 1-.26-.39 4.4 4.4 0 0 1-.14-1.3v-.57c0-.46.01-.8.04-1.01.03-.19.08-.31.15-.37.07-.06.21-.09.42-.09h.43c.44 0 .74.02.9.04.16.03.3.1.41.2.2.19.33.46.38.82.03.17.09.25.2.24.05 0 .09-.02.1-.04a.29.29 0 0 0 .02-.12l-.01-.33c0-.24-.01-.53-.04-.86a16.26 16.26 0 0 1-.05-1.24l.02-.28c0-.12-.05-.18-.14-.17-.09 0-.15.04-.19.12l-.15.31c-.23.46-.56.7-.98.7h-.54l-.26.01-.19.01c-.22 0-.36-.05-.42-.16a1.92 1.92 0 0 1-.09-.75v-1.39l.01-.27z" class="ft_st0"/>
  <path d="M46.58 46.58V0H0v46.58h46.58z" class="ft_st1"/>
  <path d="M40.7 5.88v11.75h-4.35c0-2.16-2.14-3.92-4.79-3.92-1.93 0-3.6.94-4.35 2.29v14.69a5.56 5.56 0 0 0 5.43 5.66h.01v4.35H13.93v-4.35h.01c3-.01 5.43-2.54 5.43-5.66V16a4.94 4.94 0 0 0-4.35-2.29c-2.64 0-4.79 1.75-4.79 3.92H5.88V5.88H40.7z" class="ft_st0"/>
</svg>