<?xml version="1.0" encoding="utf-8"?>
<svg width="119" height="27" viewBox="0 0 119 27" fill="none" xmlns="http://www.w3.org/2000/svg">
  <g>
    <path d="M 39.67 8.66 C 39.82 8.78 39.94 9.03 40.01 9.42 C 40.04 9.6 40.11 9.68 40.21 9.68 C 40.32 9.67 40.38 9.58 40.38 9.41 C 40.37 9.33 40.36 9.19 40.33 9.01 C 40.3 8.86 40.29 8.62 40.29 8.3 C 40.29 7.98 40.25 7.78 40.19 7.72 C 40.13 7.65 39.95 7.62 39.65 7.62 L 30.89 7.62 C 30.7 7.62 30.58 7.66 30.52 7.74 C 30.47 7.82 30.44 7.98 30.44 8.24 C 30.44 8.49 30.39 8.82 30.31 9.22 C 30.25 9.53 30.22 9.74 30.22 9.85 C 30.22 10 30.27 10.07 30.36 10.07 C 30.46 10.08 30.53 9.98 30.58 9.76 C 30.69 9.27 30.85 8.93 31.04 8.75 C 31.24 8.57 31.56 8.48 32 8.48 L 34.15 8.48 C 34.36 8.48 34.49 8.51 34.55 8.56 C 34.61 8.62 34.64 8.75 34.64 8.94 L 34.64 9.16 L 34.64 17.37 C 34.64 17.83 34.57 18.15 34.43 18.33 C 34.28 18.51 34 18.63 33.58 18.68 C 33.4 18.7 33.31 18.76 33.31 18.84 C 33.31 18.96 33.39 19.02 33.56 19.02 C 33.61 19.02 33.79 19 34.1 18.97 C 34.26 18.95 34.45 18.95 34.68 18.95 L 35.32 18.94 L 35.92 18.95 C 36.3 18.95 36.55 18.95 36.65 18.97 C 36.85 19 36.99 19.02 37.05 19.02 C 37.2 19.02 37.28 18.96 37.28 18.84 C 37.28 18.75 37.18 18.69 36.99 18.65 C 36.31 18.53 35.95 18.15 35.93 17.5 L 35.92 17.18 L 35.92 9.06 C 35.92 8.8 35.95 8.64 36.01 8.58 C 36.07 8.51 36.22 8.48 36.46 8.48 L 38.75 8.48 C 39.2 8.48 39.51 8.54 39.67 8.65 L 39.67 8.66 Z M 44.08 8.34 C 44.18 8.26 44.4 8.21 44.73 8.21 L 46.01 8.21 C 46.85 8.21 47.43 8.25 47.74 8.34 C 48.05 8.42 48.26 8.58 48.36 8.83 C 48.43 8.99 48.46 9.16 48.46 9.34 L 48.46 9.55 C 48.46 9.72 48.51 9.8 48.62 9.8 C 48.71 9.79 48.78 9.75 48.8 9.67 C 48.83 9.59 48.86 9.39 48.89 9.07 L 48.92 8.59 C 48.95 8.22 48.97 8 48.98 7.93 C 49 7.85 49.01 7.79 49.01 7.74 C 49.01 7.58 48.92 7.5 48.74 7.5 C 48.67 7.5 48.56 7.51 48.42 7.53 C 48.35 7.54 48.15 7.55 47.83 7.56 L 46.67 7.62 C 46.16 7.64 45.58 7.65 44.92 7.65 C 43.82 7.65 42.89 7.6 42.12 7.52 C 41.89 7.49 41.71 7.47 41.57 7.47 C 41.33 7.47 41.2 7.55 41.2 7.7 C 41.2 7.8 41.28 7.85 41.44 7.85 C 41.93 7.85 42.26 7.99 42.44 8.26 C 42.61 8.54 42.69 9.07 42.69 9.86 L 42.69 16.85 L 42.69 17.39 C 42.69 18.06 42.49 18.44 42.1 18.55 L 41.79 18.64 C 41.65 18.68 41.58 18.75 41.58 18.84 C 41.58 18.96 41.67 19.01 41.84 19.01 C 41.92 19.01 42.06 19 42.26 18.96 C 42.66 18.89 43.33 18.86 44.27 18.86 C 44.95 18.86 45.81 18.91 46.85 19.01 C 47.11 19.03 47.32 19.04 47.48 19.04 C 48.21 19.04 48.81 18.74 49.29 18.15 C 49.68 17.65 49.88 17.23 49.88 16.87 C 49.88 16.72 49.83 16.65 49.73 16.65 C 49.67 16.66 49.61 16.71 49.55 16.8 C 48.94 17.78 47.57 18.27 45.44 18.27 C 44.77 18.27 44.35 18.21 44.19 18.09 C 44.02 17.98 43.94 17.69 43.94 17.22 L 43.94 14.17 L 43.93 13.89 C 43.93 13.73 43.98 13.62 44.07 13.56 C 44.16 13.51 44.33 13.48 44.6 13.48 L 46.39 13.48 C 46.86 13.48 47.19 13.55 47.38 13.68 C 47.58 13.81 47.71 14.06 47.78 14.43 L 47.82 14.66 C 47.84 14.78 47.91 14.84 48.03 14.84 C 48.14 14.84 48.19 14.77 48.19 14.64 C 48.19 14.59 48.18 14.51 48.17 14.4 C 48.14 14.07 48.13 13.74 48.13 13.4 C 48.13 12.96 48.15 12.48 48.2 11.94 C 48.21 11.86 48.21 11.8 48.21 11.76 C 48.21 11.61 48.16 11.54 48.05 11.54 C 47.94 11.53 47.87 11.6 47.84 11.73 C 47.77 12.1 47.69 12.33 47.61 12.43 C 47.52 12.52 47.33 12.61 47.04 12.67 C 46.71 12.73 46.26 12.76 45.69 12.76 L 44.43 12.76 C 44.2 12.76 44.06 12.74 44.01 12.69 C 43.97 12.63 43.94 12.48 43.94 12.23 L 43.94 8.89 C 43.94 8.6 43.99 8.41 44.09 8.32 L 44.08 8.34 Z M 60.6 10.24 L 60.6 9.35 C 60.6 8.82 60.65 8.46 60.75 8.26 C 60.86 8.07 61.08 7.93 61.41 7.85 C 61.52 7.82 61.58 7.77 61.57 7.69 C 61.56 7.58 61.49 7.52 61.34 7.52 C 61.25 7.52 61.12 7.54 60.95 7.57 C 60.74 7.6 60.48 7.62 60.14 7.62 C 59.51 7.62 59.01 7.6 58.63 7.56 C 58.48 7.54 58.36 7.54 58.29 7.54 C 58.13 7.54 58.05 7.59 58.05 7.69 C 58.05 7.8 58.13 7.87 58.29 7.89 C 58.85 7.99 59.24 8.13 59.45 8.33 C 59.67 8.52 59.8 8.85 59.85 9.32 L 59.95 11.22 L 59.94 12.34 L 59.94 16.43 C 59.94 16.53 59.91 16.58 59.85 16.59 C 59.82 16.6 59.75 16.53 59.62 16.39 L 52.14 7.78 C 52 7.62 51.86 7.54 51.73 7.54 C 51.66 7.54 51.56 7.54 51.43 7.55 L 51.3 7.55 L 50.75 7.54 L 50.42 7.53 C 50.36 7.52 50.32 7.52 50.29 7.52 C 50.17 7.52 50.11 7.58 50.11 7.68 C 50.11 7.78 50.18 7.84 50.33 7.86 C 50.89 7.94 51.32 8.25 51.62 8.8 C 51.92 9.35 52.07 10.1 52.07 11.06 L 52.07 16.68 C 52.07 17.28 51.99 17.71 51.83 17.98 C 51.67 18.25 51.36 18.46 50.9 18.62 C 50.75 18.67 50.67 18.74 50.67 18.82 C 50.68 18.92 50.76 18.97 50.9 18.97 C 50.96 18.97 51.06 18.96 51.2 18.94 C 51.39 18.92 51.59 18.9 51.81 18.9 L 52.2 18.89 L 53.03 18.93 C 53.44 18.95 53.67 18.97 53.73 18.98 C 53.82 18.99 53.9 19 53.98 19 C 54.09 19 54.15 18.95 54.15 18.84 C 54.15 18.72 54.06 18.65 53.88 18.63 C 53.45 18.56 53.16 18.46 53.02 18.32 C 52.87 18.18 52.78 17.93 52.74 17.57 L 52.71 16.98 L 52.72 16.63 L 52.72 11.02 C 52.72 10.77 52.77 10.65 52.88 10.65 C 52.92 10.65 52.96 10.66 52.99 10.69 L 53.07 10.79 L 59.94 18.76 L 60.12 18.97 C 60.16 19.01 60.22 19.04 60.3 19.04 C 60.43 19.05 60.51 18.98 60.53 18.85 C 60.56 18.72 60.57 18.34 60.57 17.71 L 60.57 10.79 L 60.59 10.24 L 60.6 10.24 Z M 72.4 10.24 L 72.4 9.35 C 72.4 8.82 72.45 8.46 72.56 8.26 C 72.67 8.07 72.88 7.93 73.22 7.85 C 73.33 7.82 73.39 7.77 73.38 7.69 C 73.37 7.58 73.29 7.52 73.15 7.52 C 73.06 7.52 72.93 7.54 72.75 7.57 C 72.55 7.6 72.29 7.62 71.95 7.62 C 71.31 7.62 70.82 7.6 70.44 7.56 C 70.29 7.54 70.17 7.54 70.1 7.54 C 69.94 7.54 69.86 7.59 69.86 7.69 C 69.86 7.8 69.94 7.87 70.1 7.89 C 70.66 7.99 71.04 8.13 71.26 8.33 C 71.47 8.52 71.61 8.85 71.66 9.32 L 71.76 11.22 L 71.75 12.34 L 71.75 16.43 C 71.74 16.53 71.72 16.58 71.66 16.59 C 71.63 16.6 71.55 16.53 71.43 16.39 L 63.94 7.78 C 63.81 7.62 63.67 7.54 63.54 7.54 C 63.47 7.54 63.37 7.54 63.24 7.55 L 63.1 7.55 L 62.56 7.54 L 62.23 7.53 C 62.17 7.52 62.12 7.52 62.1 7.52 C 61.98 7.52 61.92 7.58 61.92 7.68 C 61.92 7.78 61.99 7.84 62.13 7.86 C 62.7 7.94 63.13 8.25 63.43 8.8 C 63.72 9.35 63.87 10.1 63.87 11.06 L 63.87 16.68 C 63.87 17.28 63.79 17.71 63.63 17.98 C 63.48 18.25 63.17 18.46 62.71 18.62 C 62.55 18.67 62.48 18.74 62.48 18.82 C 62.49 18.92 62.57 18.97 62.71 18.97 C 62.77 18.97 62.87 18.96 63.01 18.94 C 63.2 18.92 63.4 18.9 63.61 18.9 L 64.01 18.89 L 64.84 18.93 C 65.25 18.95 65.49 18.97 65.54 18.98 C 65.63 18.99 65.71 19 65.79 19 C 65.9 19 65.96 18.95 65.96 18.84 C 65.96 18.72 65.87 18.65 65.69 18.63 C 65.26 18.56 64.97 18.46 64.83 18.32 C 64.68 18.18 64.59 17.93 64.55 17.57 L 64.53 16.98 L 64.53 16.63 L 64.53 11.02 C 64.53 10.77 64.58 10.65 64.69 10.65 C 64.73 10.65 64.77 10.66 64.8 10.69 L 64.89 10.79 L 71.75 18.76 L 71.93 18.97 C 71.97 19.01 72.04 19.04 72.12 19.04 C 72.24 19.05 72.32 18.98 72.34 18.85 C 72.37 18.72 72.39 18.34 72.39 17.71 L 72.39 10.79 L 72.4 10.24 Z M 76.86 8.34 C 76.96 8.26 77.18 8.21 77.51 8.21 L 78.79 8.21 C 79.63 8.21 80.2 8.25 80.52 8.34 C 80.83 8.42 81.04 8.58 81.14 8.83 C 81.21 8.99 81.24 9.16 81.24 9.34 L 81.24 9.55 C 81.24 9.72 81.29 9.8 81.39 9.8 C 81.49 9.79 81.55 9.75 81.58 9.67 C 81.6 9.59 81.63 9.39 81.66 9.07 L 81.69 8.59 C 81.72 8.22 81.74 8 81.76 7.93 C 81.77 7.85 81.78 7.79 81.78 7.74 C 81.78 7.58 81.69 7.5 81.51 7.5 C 81.44 7.5 81.33 7.51 81.19 7.53 C 81.12 7.54 80.92 7.55 80.6 7.56 L 79.45 7.62 C 78.94 7.64 78.35 7.65 77.69 7.65 C 76.6 7.65 75.66 7.6 74.89 7.52 C 74.66 7.49 74.48 7.47 74.34 7.47 C 74.1 7.47 73.98 7.55 73.98 7.7 C 73.98 7.8 74.06 7.85 74.21 7.85 C 74.7 7.85 75.04 7.99 75.21 8.26 C 75.38 8.54 75.47 9.07 75.47 9.86 L 75.47 16.85 L 75.46 17.39 C 75.46 18.06 75.27 18.44 74.87 18.55 L 74.57 18.64 C 74.42 18.68 74.35 18.75 74.35 18.84 C 74.35 18.96 74.44 19.01 74.61 19.01 C 74.69 19.01 74.83 19 75.04 18.96 C 75.43 18.89 76.1 18.86 77.05 18.86 C 77.73 18.86 78.58 18.91 79.62 19.01 C 79.89 19.03 80.1 19.04 80.25 19.04 C 80.98 19.04 81.58 18.74 82.06 18.15 C 82.45 17.65 82.65 17.23 82.65 16.87 C 82.65 16.72 82.6 16.65 82.51 16.65 C 82.44 16.66 82.38 16.71 82.32 16.8 C 81.72 17.78 80.35 18.27 78.22 18.27 C 77.55 18.27 77.13 18.21 76.96 18.09 C 76.8 17.98 76.71 17.69 76.71 17.22 L 76.71 14.17 L 76.71 13.89 C 76.71 13.73 76.75 13.62 76.84 13.56 C 76.93 13.51 77.11 13.48 77.37 13.48 L 79.17 13.48 C 79.63 13.48 79.97 13.55 80.16 13.68 C 80.35 13.81 80.49 14.06 80.55 14.43 L 80.6 14.66 C 80.62 14.78 80.69 14.84 80.8 14.84 C 80.91 14.84 80.96 14.77 80.96 14.64 C 80.96 14.59 80.96 14.51 80.95 14.4 C 80.91 14.07 80.9 13.74 80.9 13.4 C 80.9 12.96 80.92 12.48 80.97 11.94 C 80.98 11.86 80.98 11.8 80.98 11.76 C 80.98 11.61 80.93 11.54 80.82 11.54 C 80.71 11.53 80.64 11.6 80.61 11.73 C 80.54 12.1 80.46 12.33 80.38 12.43 C 80.29 12.52 80.1 12.61 79.81 12.67 C 79.48 12.73 79.03 12.76 78.46 12.76 L 77.2 12.76 C 76.97 12.76 76.83 12.74 76.78 12.69 C 76.74 12.63 76.71 12.48 76.71 12.23 L 76.71 8.89 C 76.71 8.6 76.76 8.41 76.86 8.32 L 76.86 8.34 Z M 85.21 8.24 C 84.56 8.8 84.23 9.53 84.23 10.42 C 84.23 11.22 84.48 11.87 84.98 12.37 C 85.49 12.87 86.34 13.33 87.54 13.74 C 88.71 14.14 89.41 14.45 89.66 14.66 C 90.13 15.08 90.37 15.6 90.37 16.21 C 90.37 16.82 90.11 17.39 89.59 17.84 C 89.08 18.29 88.45 18.51 87.7 18.51 C 86.95 18.51 86.28 18.28 85.65 17.81 C 85.03 17.35 84.61 16.77 84.42 16.09 C 84.34 15.82 84.25 15.69 84.15 15.68 C 84.04 15.68 83.99 15.76 83.99 15.92 C 83.99 16.13 84.05 16.49 84.2 16.98 C 84.32 17.44 84.39 17.69 84.4 17.73 C 84.47 18.04 84.52 18.23 84.55 18.31 C 84.58 18.38 84.64 18.45 84.74 18.52 C 84.97 18.68 85.34 18.82 85.84 18.94 C 86.35 19.07 86.8 19.13 87.22 19.13 C 88.38 19.13 89.33 18.8 90.06 18.14 C 90.8 17.49 91.17 16.64 91.17 15.62 C 91.17 14.1 90.17 13 88.16 12.33 C 87.13 11.99 86.48 11.75 86.22 11.61 C 85.96 11.48 85.72 11.27 85.5 10.98 C 85.24 10.65 85.12 10.25 85.12 9.78 C 85.12 9.26 85.31 8.82 85.7 8.47 C 86.1 8.12 86.58 7.95 87.17 7.95 C 87.91 7.95 88.57 8.14 89.17 8.53 C 89.77 8.91 90.16 9.41 90.36 10 C 90.45 10.27 90.54 10.4 90.63 10.4 C 90.74 10.4 90.8 10.31 90.8 10.14 C 90.8 10.1 90.79 9.98 90.76 9.8 L 90.63 8.95 C 90.56 8.49 90.52 8.21 90.52 8.12 C 90.52 7.84 90.45 7.71 90.31 7.71 C 90.27 7.71 90.24 7.72 90.22 7.74 L 90.11 7.84 C 90.04 7.9 89.98 7.92 89.92 7.92 C 89.87 7.92 89.82 7.91 89.77 7.89 L 89.21 7.65 C 88.81 7.48 88.31 7.4 87.74 7.4 C 86.71 7.4 85.86 7.68 85.21 8.24 Z M 93.98 8.24 C 93.33 8.8 93 9.53 93 10.42 C 93 11.22 93.25 11.87 93.75 12.37 C 94.25 12.87 95.11 13.33 96.31 13.74 C 97.47 14.14 98.18 14.45 98.42 14.66 C 98.9 15.08 99.14 15.6 99.14 16.21 C 99.14 16.82 98.88 17.39 98.36 17.84 C 97.85 18.29 97.21 18.51 96.47 18.51 C 95.72 18.51 95.05 18.28 94.42 17.81 C 93.79 17.35 93.38 16.77 93.19 16.09 C 93.11 15.82 93.02 15.69 92.92 15.68 C 92.81 15.68 92.75 15.76 92.75 15.92 C 92.75 16.13 92.82 16.49 92.97 16.98 C 93.09 17.44 93.16 17.69 93.17 17.73 C 93.24 18.04 93.28 18.23 93.32 18.31 C 93.35 18.38 93.41 18.45 93.51 18.52 C 93.74 18.68 94.11 18.82 94.61 18.94 C 95.11 19.06 95.57 19.13 95.99 19.13 C 97.15 19.13 98.09 18.8 98.83 18.14 C 99.57 17.49 99.94 16.64 99.94 15.62 C 99.94 14.1 98.94 13 96.93 12.33 C 95.9 11.99 95.25 11.75 94.99 11.61 C 94.73 11.48 94.49 11.27 94.26 10.98 C 94.01 10.65 93.88 10.25 93.88 9.78 C 93.88 9.26 94.08 8.82 94.47 8.47 C 94.86 8.12 95.35 7.95 95.94 7.95 C 96.67 7.95 97.34 8.14 97.94 8.53 C 98.53 8.91 98.93 9.41 99.13 10 C 99.22 10.27 99.3 10.4 99.39 10.4 C 99.51 10.4 99.57 10.31 99.57 10.14 C 99.57 10.1 99.55 9.98 99.53 9.8 L 99.39 8.95 C 99.32 8.49 99.29 8.21 99.29 8.12 C 99.29 7.84 99.22 7.71 99.08 7.71 C 99.04 7.71 99.01 7.72 98.99 7.74 L 98.88 7.84 C 98.81 7.9 98.75 7.92 98.68 7.92 C 98.64 7.92 98.59 7.91 98.54 7.89 L 97.98 7.65 C 97.57 7.48 97.09 7.4 96.5 7.4 C 95.47 7.4 94.63 7.68 93.98 8.24 Z M 103.88 8.34 C 103.97 8.26 104.19 8.21 104.53 8.21 L 105.8 8.21 C 106.64 8.21 107.22 8.25 107.53 8.34 C 107.85 8.42 108.06 8.58 108.16 8.83 C 108.23 8.99 108.26 9.16 108.26 9.34 L 108.26 9.55 C 108.26 9.72 108.31 9.8 108.41 9.8 C 108.51 9.79 108.57 9.75 108.6 9.67 C 108.62 9.59 108.65 9.39 108.68 9.07 L 108.71 8.59 C 108.74 8.22 108.76 8 108.78 7.93 C 108.79 7.85 108.8 7.79 108.8 7.74 C 108.8 7.58 108.71 7.5 108.53 7.5 C 108.46 7.5 108.35 7.51 108.21 7.53 C 108.14 7.54 107.94 7.55 107.62 7.56 L 106.46 7.62 C 105.96 7.64 105.37 7.65 104.71 7.65 C 103.62 7.65 102.68 7.6 101.91 7.52 C 101.68 7.49 101.5 7.47 101.36 7.47 C 101.12 7.47 101 7.55 101 7.7 C 101 7.8 101.08 7.85 101.23 7.85 C 101.72 7.85 102.06 7.99 102.23 8.26 C 102.4 8.54 102.49 9.07 102.49 9.86 L 102.49 16.85 L 102.48 17.39 C 102.48 18.06 102.29 18.44 101.89 18.55 L 101.58 18.64 C 101.44 18.68 101.37 18.75 101.37 18.84 C 101.37 18.96 101.46 19.01 101.63 19.01 C 101.71 19.01 101.85 19 102.06 18.96 C 102.45 18.89 103.12 18.86 104.07 18.86 C 104.75 18.86 105.6 18.91 106.64 19.01 C 106.9 19.03 107.12 19.04 107.27 19.04 C 108 19.04 108.6 18.74 109.08 18.15 C 109.47 17.65 109.67 17.23 109.67 16.87 C 109.67 16.72 109.62 16.65 109.52 16.65 C 109.46 16.66 109.4 16.71 109.34 16.8 C 108.73 17.78 107.36 18.27 105.23 18.27 C 104.56 18.27 104.14 18.21 103.98 18.09 C 103.81 17.98 103.73 17.69 103.73 17.22 L 103.73 14.17 L 103.72 13.89 C 103.72 13.73 103.77 13.62 103.86 13.56 C 103.95 13.51 104.13 13.48 104.39 13.48 L 106.18 13.48 C 106.65 13.48 106.98 13.55 107.18 13.68 C 107.37 13.81 107.5 14.06 107.56 14.43 L 107.61 14.66 C 107.63 14.78 107.7 14.84 107.82 14.84 C 107.92 14.84 107.98 14.77 107.98 14.64 C 107.98 14.59 107.97 14.51 107.96 14.4 C 107.93 14.07 107.91 13.74 107.91 13.4 C 107.91 12.96 107.94 12.48 107.99 11.94 C 107.99 11.86 108 11.8 108 11.76 C 108 11.61 107.94 11.54 107.84 11.54 C 107.73 11.53 107.66 11.6 107.63 11.73 C 107.56 12.1 107.48 12.33 107.39 12.43 C 107.31 12.52 107.12 12.61 106.83 12.67 C 106.5 12.73 106.05 12.76 105.47 12.76 L 104.22 12.76 C 103.99 12.76 103.84 12.74 103.8 12.69 C 103.75 12.63 103.73 12.48 103.73 12.23 L 103.73 8.89 C 103.73 8.6 103.78 8.41 103.88 8.32 L 103.88 8.34 Z M 113.21 8.34 C 113.3 8.26 113.52 8.21 113.86 8.21 L 115.13 8.21 C 115.97 8.21 116.55 8.25 116.86 8.34 C 117.18 8.42 117.39 8.58 117.49 8.83 C 117.55 8.99 117.58 9.16 117.58 9.34 L 117.58 9.55 C 117.58 9.72 117.63 9.8 117.74 9.8 C 117.83 9.79 117.89 9.75 117.92 9.67 C 117.95 9.59 117.98 9.39 118.01 9.07 L 118.04 8.59 C 118.06 8.22 118.09 8 118.1 7.93 C 118.12 7.85 118.13 7.79 118.13 7.74 C 118.13 7.58 118.04 7.5 117.86 7.5 C 117.79 7.5 117.68 7.51 117.53 7.53 C 117.46 7.54 117.26 7.55 116.95 7.56 L 115.79 7.62 C 115.28 7.64 114.7 7.65 114.03 7.65 C 112.94 7.65 112.01 7.6 111.23 7.52 C 111 7.49 110.82 7.47 110.69 7.47 C 110.45 7.47 110.32 7.55 110.32 7.7 C 110.32 7.8 110.4 7.85 110.56 7.85 C 111.05 7.85 111.38 7.99 111.56 8.26 C 111.73 8.54 111.81 9.07 111.81 9.86 L 111.81 16.85 L 111.81 17.39 C 111.81 18.06 111.61 18.44 111.22 18.55 L 110.91 18.64 C 110.77 18.68 110.7 18.75 110.7 18.84 C 110.7 18.96 110.79 19.01 110.96 19.01 C 111.04 19.01 111.18 19 111.38 18.96 C 111.77 18.89 112.44 18.86 113.39 18.86 C 114.07 18.86 114.93 18.91 115.96 19.01 C 116.23 19.03 116.44 19.04 116.6 19.04 C 117.33 19.04 117.93 18.74 118.4 18.15 C 118.8 17.65 119 17.23 119 16.87 C 119 16.72 118.95 16.65 118.85 16.65 C 118.79 16.66 118.73 16.71 118.67 16.8 C 118.06 17.78 116.69 18.27 114.56 18.27 C 113.89 18.27 113.47 18.21 113.31 18.09 C 113.14 17.98 113.06 17.69 113.06 17.22 L 113.06 14.17 L 113.05 13.89 C 113.05 13.73 113.1 13.62 113.19 13.56 C 113.28 13.51 113.46 13.48 113.72 13.48 L 115.51 13.48 C 115.98 13.48 116.31 13.55 116.51 13.68 C 116.7 13.81 116.83 14.06 116.89 14.43 L 116.94 14.66 C 116.96 14.78 117.03 14.84 117.15 14.84 C 117.26 14.84 117.31 14.77 117.31 14.64 C 117.31 14.59 117.3 14.51 117.29 14.4 C 117.26 14.07 117.24 13.74 117.24 13.4 C 117.24 12.96 117.27 12.48 117.32 11.94 C 117.32 11.86 117.33 11.8 117.33 11.76 C 117.33 11.61 117.27 11.54 117.17 11.54 C 117.06 11.53 116.99 11.6 116.96 11.73 C 116.89 12.1 116.81 12.33 116.72 12.43 C 116.64 12.52 116.45 12.61 116.16 12.67 C 115.83 12.73 115.37 12.76 114.8 12.76 L 113.55 12.76 C 113.32 12.76 113.17 12.74 113.13 12.69 C 113.08 12.63 113.06 12.48 113.06 12.23 L 113.06 8.89 C 113.06 8.6 113.11 8.41 113.21 8.32 L 113.21 8.34 Z" fill="#4B4B4B"/>
    <path d="M 33.41 0.62 C 33.5 0.56 33.73 0.53 34.1 0.53 C 34.37 0.53 34.58 0.58 34.73 0.68 C 34.87 0.78 34.97 0.95 35.02 1.18 C 35.04 1.27 35.08 1.32 35.14 1.32 C 35.2 1.32 35.23 1.27 35.23 1.19 C 35.23 1.11 35.22 1.01 35.21 0.88 C 35.19 0.72 35.17 0.62 35.17 0.58 L 35.15 0.32 C 35.15 0.2 35.08 0.15 34.94 0.15 C 34.91 0.15 34.82 0.15 34.7 0.15 C 34.06 0.19 33.46 0.2 32.89 0.2 L 32.01 0.19 L 31.27 0.19 C 31.09 0.19 30.96 0.18 30.87 0.18 C 30.81 0.17 30.77 0.17 30.74 0.17 C 30.65 0.17 30.6 0.22 30.59 0.31 L 30.56 0.54 L 30.52 0.87 L 30.48 1.19 C 30.46 1.31 30.45 1.4 30.45 1.47 C 30.44 1.55 30.48 1.59 30.56 1.59 C 30.61 1.59 30.65 1.54 30.68 1.44 L 30.71 1.33 C 30.78 1.07 30.84 0.9 30.88 0.83 C 30.92 0.76 31.01 0.7 31.14 0.65 C 31.32 0.58 31.65 0.54 32.13 0.54 C 32.34 0.54 32.44 0.64 32.44 0.83 L 32.44 4.28 C 32.44 4.5 32.39 4.67 32.29 4.8 C 32.18 4.92 32.04 5 31.85 5.01 C 31.78 5.01 31.73 5.02 31.71 5.04 C 31.69 5.05 31.67 5.09 31.67 5.14 C 31.67 5.21 31.71 5.24 31.78 5.24 C 31.81 5.24 31.87 5.24 31.95 5.23 L 32.75 5.18 C 32.87 5.17 32.99 5.17 33.13 5.17 C 33.19 5.17 33.24 5.17 33.28 5.17 L 33.73 5.2 L 34 5.21 C 34.05 5.21 34.08 5.21 34.09 5.21 C 34.17 5.21 34.2 5.19 34.2 5.13 C 34.2 5.05 34.16 5.01 34.07 5 C 33.77 4.98 33.56 4.88 33.44 4.71 C 33.33 4.54 33.27 4.24 33.27 3.83 L 33.27 1.05 C 33.27 0.82 33.31 0.67 33.4 0.62 L 33.41 0.62 Z M 40.37 2.76 C 40.4 2.81 40.41 2.96 40.41 3.2 L 40.41 4.21 C 40.41 4.46 40.38 4.66 40.3 4.78 C 40.23 4.91 40.11 4.98 39.95 5.01 C 39.89 5.02 39.86 5.05 39.86 5.1 C 39.86 5.18 39.9 5.22 39.98 5.22 C 40.02 5.22 40.11 5.22 40.26 5.2 C 40.51 5.17 40.71 5.16 40.86 5.16 C 41.1 5.16 41.36 5.17 41.65 5.21 C 41.77 5.22 41.86 5.23 41.9 5.23 C 42.03 5.23 42.09 5.19 42.09 5.11 C 42.09 5.05 42.05 5.02 41.96 5.02 C 41.71 5.02 41.53 4.94 41.42 4.79 C 41.3 4.63 41.25 4.38 41.25 4.03 L 41.25 0.87 C 41.25 0.55 41.39 0.37 41.68 0.32 C 41.75 0.3 41.78 0.27 41.78 0.21 C 41.78 0.15 41.74 0.11 41.65 0.11 C 41.56 0.11 41.43 0.12 41.26 0.14 C 40.97 0.17 40.77 0.19 40.68 0.19 C 40.42 0.19 40.19 0.17 39.99 0.14 C 39.87 0.12 39.79 0.11 39.75 0.11 C 39.68 0.11 39.63 0.15 39.63 0.22 C 39.63 0.28 39.67 0.32 39.73 0.33 L 39.9 0.36 C 40.24 0.43 40.41 0.62 40.41 0.93 L 40.41 1.72 C 40.41 1.99 40.4 2.16 40.37 2.22 C 40.33 2.28 40.24 2.31 40.1 2.31 L 38.4 2.31 C 38.2 2.31 38.09 2.29 38.05 2.25 C 38.02 2.21 38 2.06 38 1.81 L 38 0.86 C 38 0.55 38.14 0.36 38.43 0.31 C 38.5 0.3 38.53 0.27 38.53 0.21 C 38.53 0.14 38.49 0.11 38.4 0.11 C 38.31 0.11 38.18 0.12 38.01 0.13 C 37.71 0.17 37.52 0.18 37.43 0.18 C 37.17 0.18 36.94 0.17 36.74 0.14 C 36.63 0.12 36.55 0.11 36.5 0.11 C 36.43 0.11 36.39 0.14 36.39 0.22 C 36.39 0.27 36.42 0.31 36.49 0.33 C 36.75 0.38 36.92 0.45 37.02 0.53 C 37.11 0.62 37.16 0.75 37.16 0.93 L 37.16 4.2 C 37.16 4.46 37.12 4.65 37.05 4.77 C 36.98 4.9 36.86 4.97 36.7 5 C 36.63 5.01 36.61 5.04 36.61 5.09 C 36.61 5.17 36.64 5.21 36.72 5.21 C 36.76 5.21 36.85 5.21 37 5.19 C 37.25 5.16 37.45 5.15 37.6 5.15 C 37.84 5.15 38.11 5.16 38.39 5.2 C 38.52 5.21 38.6 5.22 38.65 5.22 C 38.77 5.22 38.84 5.18 38.84 5.1 C 38.84 5.04 38.8 5.01 38.71 5.01 C 38.46 5.01 38.28 4.93 38.16 4.78 C 38.05 4.62 38 4.37 38 4.02 L 38 3.11 C 38 2.91 38.02 2.8 38.06 2.75 C 38.1 2.7 38.2 2.68 38.38 2.68 L 40.1 2.68 C 40.24 2.68 40.33 2.71 40.37 2.76 Z M 44.79 0.86 C 44.79 0.65 44.86 0.52 44.98 0.48 L 45.22 0.45 L 45.67 0.45 C 46.06 0.45 46.34 0.51 46.52 0.62 C 46.7 0.73 46.78 0.91 46.78 1.15 C 46.78 1.26 46.81 1.32 46.85 1.31 C 46.95 1.31 47 1.21 47 1.02 C 47 0.93 46.99 0.78 46.97 0.56 C 46.95 0.42 46.95 0.32 46.95 0.26 C 46.95 0.18 46.91 0.14 46.84 0.14 C 46.83 0.14 46.81 0.14 46.79 0.14 C 46.61 0.16 46.12 0.17 45.33 0.17 L 43.95 0.16 L 43.59 0.14 C 43.51 0.14 43.45 0.14 43.41 0.14 C 43.35 0.14 43.31 0.13 43.3 0.13 C 43.22 0.13 43.18 0.16 43.18 0.22 C 43.18 0.29 43.21 0.32 43.28 0.33 C 43.55 0.37 43.74 0.44 43.83 0.54 C 43.92 0.64 43.96 0.82 43.96 1.1 L 43.96 4.02 C 43.96 4.24 43.95 4.42 43.92 4.55 C 43.89 4.7 43.85 4.81 43.8 4.87 C 43.76 4.93 43.66 4.99 43.52 5.04 C 43.47 5.07 43.44 5.1 43.44 5.15 C 43.45 5.2 43.48 5.23 43.54 5.23 C 43.58 5.23 43.65 5.23 43.75 5.22 C 44.11 5.2 44.38 5.19 44.56 5.19 C 44.82 5.19 45.03 5.2 45.18 5.21 L 45.61 5.25 C 45.79 5.27 45.97 5.28 46.12 5.28 C 46.39 5.28 46.6 5.24 46.76 5.16 C 46.92 5.08 47.05 4.94 47.15 4.75 C 47.28 4.52 47.35 4.28 47.35 4.04 C 47.35 4.01 47.34 3.98 47.31 3.96 C 47.29 3.94 47.27 3.93 47.25 3.94 C 47.23 3.94 47.22 3.95 47.21 3.98 C 46.91 4.59 46.26 4.9 45.28 4.9 C 45.17 4.9 45.08 4.88 45.02 4.84 C 44.97 4.8 44.92 4.72 44.88 4.61 C 44.83 4.46 44.8 4.21 44.8 3.87 L 44.8 3.53 C 44.8 3.27 44.81 3.08 44.82 2.95 C 44.83 2.84 44.86 2.77 44.91 2.74 C 44.95 2.7 45.03 2.69 45.14 2.69 L 45.39 2.69 C 45.64 2.69 45.81 2.69 45.9 2.71 C 45.99 2.73 46.07 2.77 46.13 2.82 C 46.24 2.93 46.32 3.09 46.35 3.3 C 46.36 3.4 46.4 3.44 46.46 3.44 C 46.49 3.44 46.51 3.43 46.52 3.41 C 46.52 3.4 46.53 3.38 46.53 3.34 L 46.53 3.15 C 46.53 3.01 46.52 2.85 46.5 2.66 C 46.48 2.37 46.47 2.18 46.47 2.11 C 46.47 2.06 46.47 2.01 46.48 1.94 C 46.48 1.86 46.49 1.8 46.49 1.78 C 46.49 1.71 46.46 1.68 46.41 1.68 C 46.35 1.68 46.32 1.71 46.3 1.75 L 46.22 1.93 C 46.08 2.2 45.9 2.33 45.66 2.33 L 45.19 2.33 L 45.09 2.34 C 44.96 2.34 44.88 2.31 44.85 2.25 C 44.81 2.19 44.8 2.04 44.8 1.81 L 44.8 0.86 L 44.79 0.86 Z M 55.09 0.21 C 55.09 0.28 55.14 0.32 55.24 0.32 C 55.45 0.32 55.62 0.38 55.75 0.51 C 55.87 0.63 55.95 0.81 55.96 1.04 L 55.98 1.8 L 55.98 2.09 C 55.98 2.77 55.94 3.3 55.86 3.66 C 55.78 4.02 55.64 4.3 55.45 4.49 C 55.16 4.77 54.78 4.91 54.31 4.91 C 53.84 4.91 53.48 4.77 53.19 4.5 C 52.99 4.32 52.86 4.11 52.8 3.85 C 52.74 3.6 52.71 3.18 52.71 2.58 L 52.7 1.93 L 52.76 1 C 52.77 0.76 52.8 0.61 52.85 0.52 C 52.9 0.44 53 0.38 53.15 0.35 C 53.22 0.34 53.27 0.32 53.29 0.31 C 53.31 0.29 53.32 0.26 53.32 0.23 C 53.32 0.15 53.25 0.12 53.13 0.12 C 53.08 0.12 52.99 0.12 52.88 0.13 C 52.59 0.16 52.33 0.17 52.09 0.17 C 51.93 0.17 51.69 0.16 51.38 0.13 C 51.31 0.12 51.26 0.12 51.23 0.12 C 51.15 0.12 51.11 0.15 51.11 0.21 C 51.11 0.27 51.16 0.31 51.25 0.33 C 51.4 0.35 51.53 0.39 51.65 0.44 C 51.75 0.49 51.82 0.55 51.85 0.62 C 51.88 0.69 51.9 0.81 51.9 0.97 L 51.91 1.64 L 51.87 3.07 C 51.87 3.99 52.1 4.61 52.56 4.94 C 52.9 5.17 53.39 5.29 54 5.29 C 54.88 5.29 55.5 5.01 55.86 4.43 C 56.01 4.2 56.12 3.86 56.19 3.43 C 56.26 2.99 56.3 2.42 56.3 1.71 L 56.3 1.25 L 56.3 0.93 C 56.3 0.56 56.39 0.35 56.59 0.32 L 56.72 0.29 C 56.78 0.28 56.81 0.25 56.81 0.2 C 56.81 0.13 56.78 0.1 56.72 0.1 C 56.68 0.1 56.64 0.1 56.6 0.11 C 56.5 0.12 56.4 0.13 56.28 0.14 L 55.92 0.15 L 55.54 0.14 C 55.39 0.13 55.29 0.12 55.25 0.12 C 55.21 0.11 55.18 0.1 55.16 0.11 C 55.12 0.11 55.09 0.14 55.09 0.2 L 55.09 0.21 Z M 60 0.78 L 59.75 0.48 C 59.6 0.31 59.51 0.21 59.47 0.18 C 59.43 0.15 59.36 0.13 59.29 0.13 C 59.24 0.13 59.17 0.13 59.09 0.14 C 58.88 0.16 58.67 0.17 58.48 0.17 L 58.33 0.17 L 58.08 0.17 C 58 0.17 57.96 0.2 57.96 0.27 C 57.96 0.33 58 0.36 58.07 0.37 C 58.62 0.4 58.89 0.8 58.89 1.56 L 58.89 3.15 L 58.87 4.03 C 58.87 4.33 58.83 4.56 58.75 4.72 C 58.67 4.89 58.54 4.99 58.36 5.04 C 58.29 5.06 58.26 5.1 58.26 5.15 C 58.26 5.21 58.29 5.24 58.35 5.24 C 58.39 5.24 58.45 5.23 58.54 5.22 C 58.73 5.18 58.95 5.16 59.19 5.16 C 59.44 5.16 59.66 5.18 59.87 5.22 C 59.93 5.23 59.98 5.23 60.01 5.23 C 60.09 5.23 60.12 5.19 60.12 5.12 C 60.12 5.06 60.09 5.03 60.01 5.02 C 59.62 4.99 59.39 4.83 59.31 4.56 C 59.23 4.3 59.19 3.79 59.19 3.02 L 59.19 1.49 C 59.2 1.38 59.23 1.32 59.29 1.32 C 59.31 1.32 59.35 1.36 59.41 1.42 L 62.71 5.15 C 62.75 5.2 62.8 5.22 62.84 5.23 C 62.89 5.23 62.92 5.2 62.92 5.13 L 62.9 4.67 L 62.9 4.39 L 62.9 3.98 L 62.92 3.66 L 62.97 1.36 L 62.97 1.18 C 62.97 0.68 63.13 0.39 63.44 0.33 C 63.51 0.32 63.55 0.29 63.55 0.22 C 63.55 0.15 63.51 0.12 63.43 0.12 C 63.41 0.12 63.37 0.12 63.33 0.12 C 62.97 0.17 62.7 0.19 62.53 0.19 C 62.45 0.19 62.35 0.19 62.22 0.17 C 62.03 0.15 61.88 0.14 61.8 0.14 C 61.73 0.14 61.69 0.17 61.69 0.24 C 61.69 0.29 61.73 0.32 61.81 0.32 C 62.15 0.35 62.37 0.46 62.49 0.67 C 62.6 0.87 62.66 1.26 62.66 1.84 C 62.66 2.33 62.65 2.84 62.63 3.39 C 62.63 3.54 62.6 3.61 62.55 3.61 C 62.49 3.61 62.38 3.52 62.22 3.33 L 62.09 3.19 L 60.17 1 C 60.15 0.98 60.09 0.9 60 0.78 Z M 66.44 0.92 C 66.44 0.71 66.47 0.57 66.52 0.5 C 66.57 0.43 66.68 0.38 66.85 0.35 C 66.9 0.34 66.93 0.33 66.94 0.32 C 66.96 0.3 66.96 0.27 66.96 0.23 C 66.96 0.17 66.92 0.13 66.84 0.13 C 66.71 0.13 66.51 0.14 66.27 0.16 L 66.01 0.18 C 65.8 0.2 65.63 0.21 65.5 0.21 C 65.29 0.21 65.15 0.2 65.06 0.18 C 64.97 0.16 64.91 0.15 64.86 0.15 C 64.81 0.15 64.78 0.18 64.78 0.25 C 64.78 0.3 64.8 0.33 64.83 0.35 C 64.86 0.37 64.94 0.39 65.07 0.4 C 65.27 0.44 65.42 0.5 65.5 0.59 C 65.57 0.69 65.61 0.85 65.61 1.08 L 65.61 4.34 C 65.61 4.55 65.58 4.7 65.52 4.79 C 65.46 4.89 65.35 4.96 65.17 5.03 L 65.07 5.11 L 65.08 5.15 C 65.09 5.2 65.12 5.22 65.18 5.22 C 65.23 5.22 65.32 5.21 65.44 5.19 C 65.58 5.16 65.77 5.15 66.01 5.15 C 66.21 5.15 66.46 5.17 66.77 5.2 C 66.9 5.22 67 5.22 67.07 5.22 C 67.22 5.22 67.3 5.19 67.3 5.11 C 67.3 5.04 67.24 5 67.12 5 C 66.94 5 66.8 4.95 66.68 4.85 C 66.57 4.75 66.5 4.6 66.47 4.42 L 66.45 4.05 L 66.45 0.92 L 66.44 0.92 Z M 69.86 0.67 C 69.86 0.49 69.95 0.38 70.13 0.35 C 70.23 0.33 70.28 0.29 70.28 0.23 C 70.28 0.17 70.25 0.13 70.18 0.13 C 70.13 0.13 70.03 0.13 69.87 0.14 L 69.48 0.16 L 68.87 0.14 C 68.71 0.14 68.57 0.14 68.44 0.12 C 68.39 0.12 68.35 0.12 68.34 0.12 C 68.27 0.12 68.24 0.15 68.24 0.22 C 68.24 0.28 68.29 0.32 68.38 0.34 C 68.55 0.38 68.68 0.47 68.78 0.61 C 68.88 0.76 69.01 1.06 69.18 1.51 C 69.33 1.89 69.5 2.33 69.71 2.82 L 70.57 4.8 L 70.66 5.02 L 70.74 5.21 C 70.77 5.27 70.81 5.3 70.85 5.3 C 70.92 5.3 70.98 5.24 71.03 5.13 C 71.04 5.09 71.12 4.94 71.25 4.66 C 71.27 4.63 71.37 4.39 71.57 3.93 L 72.19 2.54 L 72.74 1.27 C 72.9 0.89 73.03 0.65 73.11 0.53 C 73.2 0.41 73.31 0.33 73.46 0.31 C 73.53 0.3 73.56 0.26 73.56 0.2 C 73.56 0.14 73.54 0.11 73.5 0.11 C 73.46 0.11 73.41 0.11 73.35 0.12 C 73.19 0.15 73 0.17 72.78 0.17 C 72.71 0.17 72.59 0.16 72.41 0.15 L 72.03 0.13 C 71.93 0.13 71.86 0.12 71.83 0.12 C 71.77 0.12 71.74 0.15 71.74 0.21 C 71.74 0.27 71.78 0.3 71.87 0.31 C 72.07 0.34 72.22 0.4 72.32 0.5 C 72.42 0.6 72.48 0.73 72.48 0.88 C 72.48 1.14 72.34 1.58 72.07 2.18 L 71.25 4.02 C 71.22 4.09 71.19 4.13 71.17 4.13 C 71.14 4.13 71.1 4.08 71.07 3.99 L 70.26 1.97 C 69.99 1.32 69.86 0.88 69.86 0.67 Z M 76.1 0.86 C 76.1 0.65 76.17 0.52 76.29 0.49 L 76.53 0.46 L 76.98 0.46 C 77.37 0.46 77.65 0.51 77.83 0.62 C 78.01 0.73 78.09 0.91 78.09 1.15 C 78.09 1.27 78.12 1.32 78.16 1.32 C 78.26 1.31 78.31 1.21 78.31 1.03 C 78.31 0.93 78.29 0.78 78.28 0.57 C 78.26 0.42 78.26 0.32 78.26 0.26 C 78.26 0.18 78.22 0.14 78.15 0.14 C 78.14 0.14 78.12 0.14 78.1 0.14 C 77.92 0.17 77.43 0.18 76.64 0.18 L 75.26 0.16 L 74.89 0.15 C 74.82 0.15 74.76 0.15 74.72 0.14 C 74.66 0.14 74.63 0.14 74.61 0.14 C 74.53 0.14 74.49 0.17 74.49 0.23 C 74.49 0.29 74.52 0.32 74.59 0.33 C 74.86 0.37 75.05 0.44 75.14 0.54 C 75.22 0.64 75.27 0.83 75.27 1.1 L 75.27 4.02 C 75.27 4.24 75.26 4.42 75.23 4.55 C 75.2 4.71 75.16 4.81 75.11 4.88 C 75.06 4.94 74.97 4.99 74.83 5.05 C 74.78 5.07 74.75 5.1 74.75 5.15 C 74.76 5.21 74.79 5.23 74.85 5.23 C 74.89 5.23 74.96 5.23 75.06 5.22 C 75.42 5.2 75.69 5.19 75.87 5.19 C 76.13 5.19 76.34 5.2 76.5 5.21 L 76.92 5.26 C 77.11 5.28 77.28 5.28 77.44 5.28 C 77.7 5.28 77.91 5.24 78.07 5.16 C 78.23 5.08 78.36 4.94 78.47 4.75 C 78.6 4.52 78.66 4.29 78.66 4.04 C 78.66 4.01 78.65 3.98 78.63 3.96 C 78.61 3.94 78.59 3.94 78.57 3.94 C 78.55 3.94 78.54 3.96 78.52 3.99 C 78.22 4.59 77.58 4.9 76.6 4.9 C 76.48 4.9 76.4 4.88 76.34 4.84 C 76.28 4.8 76.24 4.73 76.19 4.61 C 76.14 4.46 76.11 4.21 76.11 3.87 L 76.11 3.54 C 76.11 3.27 76.12 3.08 76.14 2.96 C 76.15 2.85 76.18 2.78 76.22 2.74 C 76.26 2.71 76.34 2.69 76.46 2.69 L 76.71 2.69 C 76.96 2.69 77.13 2.7 77.22 2.71 C 77.31 2.73 77.38 2.77 77.45 2.83 C 77.56 2.94 77.64 3.09 77.67 3.3 C 77.68 3.4 77.72 3.45 77.78 3.44 C 77.81 3.44 77.83 3.43 77.84 3.42 C 77.85 3.41 77.85 3.38 77.85 3.35 L 77.85 3.16 C 77.85 3.02 77.84 2.85 77.83 2.66 C 77.81 2.37 77.8 2.19 77.8 2.11 C 77.8 2.06 77.8 2.01 77.8 1.95 C 77.81 1.86 77.81 1.8 77.81 1.78 C 77.81 1.71 77.79 1.68 77.73 1.69 C 77.68 1.69 77.65 1.71 77.63 1.76 L 77.54 1.94 C 77.41 2.2 77.23 2.34 76.99 2.34 L 76.52 2.34 L 76.41 2.34 C 76.29 2.34 76.21 2.31 76.17 2.25 C 76.14 2.19 76.13 2.05 76.13 1.82 L 76.13 0.87 L 76.1 0.86 Z M 81.34 3.02 C 81.34 2.92 81.36 2.86 81.4 2.84 L 81.56 2.82 L 81.79 2.82 C 81.98 2.82 82.12 2.85 82.2 2.93 C 82.28 3 82.39 3.17 82.52 3.44 C 82.86 4.13 83.13 4.6 83.34 4.85 C 83.55 5.1 83.78 5.22 84.03 5.22 C 84.18 5.22 84.36 5.18 84.56 5.09 C 84.75 5 84.86 4.91 84.86 4.84 C 84.86 4.79 84.83 4.76 84.79 4.76 C 84.77 4.76 84.74 4.76 84.71 4.77 C 84.66 4.78 84.61 4.78 84.55 4.78 C 84.42 4.78 84.3 4.74 84.2 4.65 C 84.1 4.56 83.99 4.4 83.86 4.17 L 83.48 3.5 L 83.16 2.92 C 83.12 2.84 83.08 2.78 83.06 2.75 C 83.04 2.71 83.03 2.68 83.03 2.66 C 83.03 2.63 83.05 2.6 83.1 2.58 C 83.33 2.48 83.52 2.33 83.65 2.13 C 83.79 1.93 83.85 1.71 83.85 1.46 C 83.85 1.08 83.7 0.76 83.4 0.5 C 83.1 0.25 82.72 0.12 82.26 0.12 C 82.1 0.12 81.82 0.14 81.41 0.17 C 81.06 0.2 80.77 0.21 80.52 0.21 C 80.3 0.21 80.09 0.2 79.91 0.19 C 79.85 0.18 79.8 0.18 79.77 0.18 C 79.71 0.18 79.67 0.21 79.67 0.28 C 79.67 0.35 79.72 0.39 79.82 0.41 C 80.09 0.44 80.28 0.54 80.41 0.71 C 80.48 0.81 80.51 1.01 80.51 1.3 L 80.51 4.1 L 80.51 4.45 C 80.51 4.63 80.48 4.77 80.42 4.85 C 80.35 4.94 80.24 5.01 80.07 5.06 C 80.02 5.07 80 5.11 80 5.16 C 80 5.23 80.04 5.27 80.13 5.27 C 80.16 5.27 80.2 5.27 80.27 5.26 L 80.52 5.23 L 80.82 5.21 C 80.95 5.2 81.09 5.19 81.25 5.19 C 81.45 5.19 81.65 5.2 81.86 5.22 C 81.93 5.22 81.98 5.23 82.01 5.23 C 82.09 5.23 82.13 5.19 82.13 5.12 C 82.13 5.05 82.08 5.01 81.98 5 C 81.73 4.98 81.56 4.88 81.48 4.72 C 81.39 4.55 81.35 4.23 81.35 3.77 L 81.35 3.02 L 81.34 3.02 Z M 81.44 0.5 C 81.5 0.43 81.61 0.4 81.78 0.4 C 82.15 0.4 82.45 0.52 82.69 0.76 C 82.93 1 83.05 1.31 83.05 1.68 C 83.05 1.96 82.96 2.19 82.78 2.35 C 82.69 2.44 82.59 2.49 82.49 2.5 C 82.39 2.52 82.12 2.52 81.69 2.52 C 81.54 2.52 81.44 2.5 81.4 2.46 C 81.36 2.42 81.34 2.32 81.34 2.16 L 81.34 0.89 C 81.34 0.7 81.38 0.57 81.44 0.5 Z M 86.41 0.48 C 86.15 0.75 86.02 1.09 86.02 1.5 C 86.02 1.84 86.11 2.13 86.3 2.33 C 86.49 2.55 86.84 2.77 87.36 3 L 87.91 3.25 C 88.16 3.36 88.34 3.48 88.44 3.6 C 88.54 3.73 88.58 3.89 88.58 4.08 C 88.58 4.33 88.49 4.54 88.3 4.73 C 88.1 4.92 87.88 5.02 87.64 5.02 C 87.33 5.02 87.02 4.88 86.73 4.59 C 86.44 4.31 86.23 3.95 86.11 3.53 C 86.1 3.47 86.08 3.44 86.04 3.44 C 85.96 3.44 85.93 3.5 85.93 3.62 C 85.93 3.71 85.97 3.92 86.06 4.26 C 86.12 4.47 86.16 4.64 86.17 4.76 C 86.18 4.86 86.2 4.92 86.22 4.95 C 86.23 4.97 86.3 4.99 86.41 5.01 C 86.49 5.03 86.62 5.06 86.79 5.12 C 87.15 5.23 87.41 5.29 87.58 5.29 C 87.99 5.29 88.35 5.13 88.65 4.82 C 88.96 4.5 89.11 4.13 89.11 3.7 C 89.11 3.31 89 2.98 88.78 2.7 C 88.59 2.47 88.21 2.24 87.64 2 C 87.16 1.8 86.87 1.66 86.78 1.57 C 86.63 1.44 86.56 1.27 86.56 1.08 C 86.56 0.88 86.64 0.7 86.8 0.56 C 86.97 0.41 87.16 0.33 87.37 0.33 C 87.69 0.33 87.99 0.46 88.28 0.71 C 88.56 0.96 88.74 1.25 88.81 1.6 C 88.83 1.69 88.86 1.74 88.9 1.74 C 88.96 1.74 88.99 1.69 88.99 1.58 C 88.99 1.56 88.99 1.53 88.98 1.51 L 88.95 1.17 L 88.9 0.81 C 88.9 0.77 88.89 0.73 88.89 0.68 L 88.9 0.38 C 88.9 0.3 88.88 0.25 88.82 0.25 C 88.8 0.25 88.79 0.26 88.76 0.27 L 88.63 0.34 C 88.59 0.36 88.55 0.36 88.52 0.36 C 88.47 0.36 88.39 0.34 88.29 0.3 L 88.04 0.19 C 87.83 0.11 87.6 0.06 87.37 0.06 C 86.99 0.06 86.66 0.2 86.4 0.47 L 86.41 0.48 Z M 91.97 0.92 C 91.97 0.71 92 0.57 92.05 0.5 C 92.1 0.43 92.21 0.38 92.39 0.35 C 92.43 0.34 92.47 0.33 92.48 0.32 C 92.49 0.3 92.49 0.27 92.49 0.23 C 92.49 0.17 92.46 0.13 92.37 0.13 C 92.24 0.13 92.05 0.14 91.8 0.16 L 91.54 0.18 C 91.34 0.2 91.17 0.21 91.03 0.21 C 90.83 0.21 90.68 0.2 90.59 0.18 C 90.5 0.16 90.44 0.15 90.39 0.15 C 90.33 0.15 90.31 0.18 90.31 0.25 C 90.31 0.3 90.32 0.33 90.36 0.35 C 90.39 0.37 90.47 0.39 90.6 0.4 C 90.8 0.44 90.94 0.5 91.02 0.59 C 91.1 0.69 91.14 0.85 91.14 1.08 L 91.14 4.34 C 91.14 4.55 91.11 4.7 91.05 4.79 C 90.99 4.89 90.88 4.96 90.7 5.03 L 90.6 5.11 L 90.61 5.15 C 90.62 5.2 90.65 5.22 90.71 5.22 C 90.76 5.22 90.84 5.21 90.97 5.19 C 91.11 5.16 91.3 5.15 91.54 5.15 C 91.74 5.15 91.99 5.17 92.31 5.2 C 92.43 5.22 92.53 5.22 92.6 5.22 C 92.75 5.22 92.83 5.19 92.83 5.11 C 92.83 5.04 92.77 5 92.66 5 C 92.48 5 92.33 4.95 92.22 4.85 C 92.11 4.75 92.03 4.6 92.01 4.42 L 91.98 4.05 L 91.98 0.92 L 91.97 0.92 Z M 96.72 0.62 C 96.81 0.56 97.04 0.53 97.4 0.53 C 97.68 0.53 97.89 0.58 98.03 0.68 C 98.18 0.78 98.27 0.95 98.32 1.18 C 98.34 1.27 98.38 1.32 98.44 1.32 C 98.51 1.32 98.54 1.28 98.54 1.2 C 98.54 1.12 98.53 1.01 98.51 0.88 C 98.49 0.73 98.48 0.63 98.48 0.58 L 98.46 0.32 C 98.45 0.21 98.38 0.15 98.25 0.15 C 98.21 0.15 98.13 0.15 98 0.16 C 97.37 0.19 96.76 0.21 96.2 0.21 L 95.31 0.2 L 94.57 0.19 C 94.4 0.19 94.26 0.19 94.17 0.18 C 94.11 0.18 94.07 0.17 94.04 0.17 C 93.95 0.17 93.9 0.22 93.89 0.32 L 93.87 0.54 L 93.82 0.87 L 93.79 1.19 C 93.77 1.31 93.76 1.41 93.76 1.48 C 93.75 1.56 93.79 1.59 93.87 1.59 C 93.92 1.59 93.96 1.54 93.99 1.44 L 94.02 1.34 C 94.09 1.07 94.15 0.9 94.19 0.83 C 94.23 0.77 94.32 0.7 94.45 0.65 C 94.63 0.58 94.95 0.55 95.44 0.55 C 95.64 0.55 95.75 0.64 95.75 0.84 L 95.75 4.28 C 95.75 4.5 95.7 4.67 95.6 4.8 C 95.49 4.93 95.35 5 95.16 5.01 C 95.09 5.01 95.04 5.02 95.02 5.04 C 95 5.06 94.98 5.09 94.98 5.15 C 94.98 5.21 95.02 5.25 95.09 5.25 C 95.12 5.25 95.18 5.24 95.26 5.23 L 96.06 5.18 C 96.17 5.17 96.3 5.17 96.44 5.17 C 96.5 5.17 96.55 5.17 96.59 5.17 L 97.04 5.2 L 97.31 5.21 C 97.36 5.21 97.39 5.22 97.4 5.22 C 97.48 5.22 97.52 5.19 97.52 5.13 C 97.52 5.05 97.47 5.01 97.38 5 C 97.08 4.98 96.87 4.89 96.76 4.71 C 96.64 4.54 96.58 4.25 96.58 3.83 L 96.58 1.05 C 96.58 0.82 96.63 0.67 96.72 0.62 Z M 102.44 2.97 C 102.45 2.93 102.48 2.87 102.53 2.79 C 102.79 2.38 103.07 1.88 103.38 1.27 C 103.55 0.94 103.69 0.71 103.8 0.59 C 103.92 0.47 104.06 0.38 104.24 0.34 C 104.33 0.32 104.37 0.29 104.37 0.23 C 104.37 0.18 104.34 0.14 104.28 0.14 C 104.16 0.14 104.07 0.14 103.99 0.15 L 103.69 0.17 C 103.59 0.18 103.5 0.18 103.42 0.18 C 103.27 0.18 103.15 0.17 103.05 0.16 L 102.82 0.13 C 102.76 0.12 102.7 0.12 102.63 0.12 C 102.57 0.12 102.54 0.16 102.54 0.24 C 102.54 0.29 102.58 0.32 102.66 0.33 C 102.81 0.34 102.94 0.39 103.06 0.49 C 103.18 0.58 103.24 0.67 103.24 0.78 C 103.24 0.9 103.11 1.2 102.84 1.69 C 102.71 1.93 102.63 2.07 102.6 2.14 C 102.47 2.39 102.37 2.52 102.29 2.52 C 102.21 2.52 102.14 2.43 102.05 2.26 C 102.03 2.2 101.96 2.06 101.84 1.83 L 101.55 1.27 C 101.38 0.93 101.29 0.7 101.29 0.6 C 101.29 0.47 101.38 0.39 101.57 0.35 C 101.65 0.33 101.69 0.3 101.69 0.25 C 101.69 0.18 101.64 0.15 101.54 0.15 C 101.49 0.15 101.39 0.16 101.24 0.17 C 101.03 0.19 100.84 0.2 100.64 0.2 C 100.43 0.2 100.19 0.19 99.93 0.16 C 99.8 0.14 99.71 0.14 99.64 0.14 C 99.58 0.14 99.54 0.18 99.54 0.25 C 99.54 0.32 99.59 0.35 99.68 0.36 C 99.97 0.39 100.23 0.62 100.45 1.03 L 101 2.09 C 101.16 2.38 101.29 2.63 101.42 2.84 C 101.53 3.02 101.58 3.19 101.58 3.35 L 101.58 4.06 C 101.58 4.39 101.53 4.62 101.44 4.75 C 101.34 4.89 101.16 4.97 100.88 5.02 C 100.82 5.03 100.78 5.05 100.78 5.1 C 100.78 5.18 100.81 5.22 100.87 5.22 C 100.91 5.22 100.99 5.21 101.09 5.2 C 101.23 5.17 101.54 5.15 101.99 5.15 C 102.17 5.15 102.32 5.16 102.41 5.17 L 102.92 5.21 C 102.99 5.22 103.05 5.22 103.11 5.22 C 103.22 5.22 103.27 5.19 103.27 5.11 C 103.27 5.05 103.23 5.02 103.16 5.01 C 102.71 4.98 102.47 4.83 102.43 4.56 L 102.41 4.31 L 102.41 3.22 C 102.41 3.1 102.42 3.01 102.43 2.97 L 102.44 2.97 Z M 109.73 0.29 C 109.37 0.43 109.07 0.64 108.84 0.9 C 108.63 1.13 108.47 1.4 108.36 1.74 C 108.24 2.07 108.18 2.4 108.18 2.74 C 108.18 3.51 108.42 4.14 108.88 4.6 C 109.35 5.07 109.98 5.3 110.77 5.3 C 111.55 5.3 112.23 5.04 112.7 4.5 C 113.17 3.95 113.41 3.28 113.41 2.5 C 113.41 1.77 113.18 1.18 112.72 0.74 C 112.25 0.29 111.64 0.07 110.89 0.07 C 110.48 0.07 110.1 0.14 109.73 0.29 Z M 111.81 0.82 C 112.04 1.03 112.22 1.32 112.36 1.69 C 112.5 2.06 112.57 2.44 112.57 2.82 C 112.57 3.49 112.42 4.03 112.12 4.42 C 111.82 4.82 111.43 5.02 110.93 5.02 C 110.38 5.02 109.93 4.78 109.59 4.3 C 109.25 3.82 109.07 3.19 109.07 2.41 C 109.07 1.76 109.21 1.25 109.48 0.88 C 109.76 0.52 110.14 0.33 110.62 0.33 C 111.08 0.33 111.47 0.49 111.81 0.81 L 111.81 0.82 Z M 116.11 0.83 C 116.11 0.69 116.13 0.6 116.19 0.55 C 116.25 0.5 116.34 0.47 116.48 0.47 L 116.63 0.47 L 117.1 0.47 C 117.64 0.47 117.96 0.63 118.05 0.95 C 118.07 0.99 118.07 1.03 118.07 1.08 L 118.07 1.2 C 118.07 1.27 118.1 1.31 118.15 1.31 C 118.24 1.31 118.29 1.2 118.29 1 C 118.29 0.96 118.29 0.92 118.28 0.86 L 118.24 0.58 C 118.24 0.55 118.23 0.46 118.22 0.31 C 118.21 0.18 118.18 0.11 118.12 0.11 C 118.06 0.11 117.97 0.12 117.84 0.13 C 117.5 0.15 117.17 0.17 116.84 0.17 L 115.89 0.17 L 115.26 0.18 C 115.1 0.18 114.95 0.18 114.8 0.17 C 114.7 0.16 114.64 0.15 114.61 0.15 C 114.53 0.15 114.49 0.19 114.49 0.26 C 114.49 0.32 114.52 0.35 114.58 0.36 C 114.81 0.37 114.99 0.43 115.11 0.54 C 115.22 0.63 115.27 0.83 115.27 1.14 L 115.27 4.17 C 115.27 4.47 115.25 4.67 115.2 4.79 C 115.14 4.91 115.05 5 114.9 5.05 C 114.83 5.07 114.8 5.1 114.8 5.15 C 114.8 5.22 114.84 5.25 114.92 5.25 C 114.98 5.25 115.1 5.24 115.28 5.22 C 115.41 5.2 115.57 5.19 115.75 5.19 L 116.15 5.19 C 116.41 5.19 116.59 5.2 116.67 5.21 C 116.77 5.22 116.84 5.22 116.89 5.22 C 116.94 5.22 116.97 5.19 116.97 5.12 C 116.97 5.06 116.93 5.03 116.85 5.02 C 116.57 5 116.39 4.92 116.3 4.8 C 116.17 4.64 116.11 4.37 116.11 4 L 116.11 3.27 C 116.11 2.96 116.13 2.79 116.19 2.74 C 116.25 2.69 116.45 2.67 116.82 2.67 C 117.1 2.67 117.3 2.71 117.41 2.8 C 117.53 2.89 117.61 3.06 117.66 3.32 C 117.67 3.39 117.7 3.43 117.74 3.42 C 117.81 3.42 117.84 3.39 117.84 3.34 C 117.84 3.31 117.84 3.25 117.83 3.18 L 117.78 2.48 C 117.76 2.29 117.76 2.12 117.76 1.98 C 117.76 1.94 117.76 1.9 117.76 1.87 C 117.76 1.82 117.77 1.79 117.77 1.77 C 117.77 1.71 117.73 1.68 117.66 1.68 C 117.63 1.68 117.6 1.71 117.58 1.76 C 117.49 1.99 117.4 2.15 117.31 2.22 C 117.22 2.3 117.08 2.34 116.9 2.34 L 116.51 2.34 L 116.37 2.35 C 116.27 2.35 116.2 2.33 116.17 2.28 C 116.13 2.24 116.11 2.14 116.11 2 L 116.11 0.82 L 116.11 0.83 Z" fill="#4B4B4B"/>
    <path d="M 32.54 22.81 C 32.54 22.52 32.56 22.34 32.61 22.25 C 32.66 22.17 32.79 22.1 33 22.04 C 33.06 22.03 33.09 21.99 33.09 21.95 C 33.09 21.88 33.06 21.85 32.99 21.85 C 32.94 21.85 32.89 21.86 32.83 21.86 C 32.6 21.89 32.35 21.9 32.06 21.9 C 31.73 21.9 31.44 21.89 31.19 21.86 C 31.13 21.85 31.07 21.85 31.01 21.85 C 30.94 21.85 30.91 21.88 30.91 21.93 C 30.91 21.99 30.91 22.03 30.93 22.04 C 30.94 22.06 30.98 22.07 31.04 22.08 C 31.22 22.1 31.37 22.14 31.47 22.21 C 31.57 22.28 31.64 22.38 31.67 22.52 L 31.7 22.73 L 31.7 22.87 L 31.7 25.83 C 31.7 26.14 31.67 26.36 31.6 26.49 C 31.53 26.62 31.41 26.7 31.24 26.72 C 31.18 26.74 31.15 26.76 31.15 26.81 C 31.15 26.88 31.19 26.92 31.29 26.92 C 31.38 26.92 31.51 26.92 31.66 26.9 C 31.91 26.88 32.16 26.87 32.43 26.87 C 32.64 26.87 32.8 26.88 32.93 26.9 C 33.04 26.92 33.11 26.93 33.16 26.93 C 33.24 26.93 33.28 26.89 33.28 26.81 C 33.28 26.75 33.22 26.71 33.08 26.7 C 32.88 26.69 32.74 26.6 32.66 26.43 C 32.58 26.26 32.54 25.98 32.54 25.58 L 32.54 25.42 C 32.54 25.2 32.54 25.07 32.56 25 C 32.58 24.93 32.62 24.86 32.68 24.8 L 32.83 24.65 L 32.94 24.54 C 32.98 24.49 33.02 24.47 33.05 24.47 C 33.09 24.47 33.15 24.53 33.22 24.64 C 33.29 24.78 33.5 25.07 33.83 25.51 C 34.15 25.95 34.42 26.3 34.63 26.56 C 34.72 26.66 34.76 26.72 34.77 26.73 C 34.87 26.86 34.99 26.92 35.11 26.92 C 35.15 26.92 35.24 26.91 35.4 26.89 C 35.49 26.88 35.57 26.88 35.64 26.88 C 35.81 26.88 36.01 26.89 36.25 26.91 C 36.29 26.92 36.33 26.92 36.35 26.92 C 36.42 26.92 36.46 26.89 36.46 26.83 C 36.46 26.76 36.44 26.73 36.38 26.71 L 36.3 26.69 C 35.95 26.59 35.68 26.44 35.49 26.25 C 35.22 25.97 34.78 25.41 34.17 24.56 L 33.91 24.2 C 33.8 24.05 33.75 23.94 33.75 23.88 C 33.75 23.8 33.85 23.67 34.05 23.49 C 34.12 23.43 34.24 23.32 34.43 23.14 C 34.83 22.76 35.13 22.49 35.35 22.34 C 35.56 22.18 35.76 22.09 35.93 22.07 C 36.03 22.05 36.09 22.02 36.09 21.96 C 36.09 21.89 36.04 21.85 35.96 21.85 C 35.86 21.85 35.69 21.86 35.44 21.9 C 35.33 21.91 35.23 21.91 35.15 21.91 C 35.05 21.91 34.87 21.9 34.61 21.87 C 34.5 21.86 34.4 21.85 34.3 21.85 C 34.21 21.85 34.17 21.89 34.17 21.95 C 34.17 22.02 34.21 22.05 34.29 22.05 C 34.39 22.05 34.47 22.07 34.54 22.12 C 34.6 22.16 34.63 22.22 34.63 22.29 C 34.63 22.52 34.3 22.93 33.63 23.54 L 33.12 23.99 L 32.76 24.32 C 32.67 24.39 32.61 24.43 32.59 24.43 C 32.55 24.43 32.53 24.38 32.53 24.29 L 32.53 22.81 L 32.54 22.81 Z M 39.06 22.48 L 38.81 22.18 C 38.67 22.02 38.58 21.91 38.54 21.88 C 38.5 21.85 38.43 21.83 38.36 21.83 C 38.31 21.83 38.24 21.84 38.16 21.84 C 37.95 21.86 37.74 21.87 37.55 21.87 L 37.4 21.87 L 37.15 21.87 C 37.07 21.87 37.03 21.9 37.03 21.97 C 37.03 22.03 37.07 22.06 37.14 22.07 C 37.69 22.11 37.96 22.5 37.96 23.26 L 37.96 24.85 L 37.94 25.73 C 37.94 26.03 37.9 26.26 37.82 26.42 C 37.74 26.58 37.61 26.69 37.43 26.74 C 37.36 26.76 37.33 26.8 37.33 26.85 C 37.33 26.91 37.36 26.94 37.42 26.94 C 37.46 26.94 37.52 26.93 37.61 26.92 C 37.8 26.88 38.02 26.86 38.26 26.86 C 38.51 26.86 38.73 26.88 38.94 26.92 C 39 26.93 39.05 26.93 39.08 26.93 C 39.16 26.93 39.19 26.89 39.19 26.82 C 39.19 26.76 39.16 26.73 39.09 26.72 C 38.69 26.69 38.46 26.53 38.38 26.25 C 38.3 26 38.27 25.49 38.27 24.72 L 38.27 23.19 C 38.27 23.08 38.3 23.02 38.36 23.02 C 38.38 23.02 38.42 23.05 38.48 23.12 L 41.78 26.85 C 41.82 26.9 41.87 26.92 41.91 26.93 C 41.96 26.93 41.99 26.89 41.99 26.83 L 41.97 26.37 L 41.97 26.09 L 41.97 25.68 L 41.99 25.36 L 42.04 23.06 L 42.04 22.88 C 42.04 22.38 42.2 22.1 42.51 22.04 C 42.58 22.03 42.62 21.99 42.62 21.92 C 42.62 21.85 42.59 21.82 42.51 21.82 C 42.49 21.82 42.45 21.82 42.4 21.83 C 42.04 21.87 41.77 21.9 41.6 21.9 C 41.52 21.9 41.42 21.89 41.29 21.87 C 41.1 21.85 40.95 21.84 40.87 21.84 C 40.8 21.84 40.76 21.87 40.76 21.94 C 40.76 21.99 40.8 22.02 40.89 22.02 C 41.22 22.05 41.45 22.16 41.56 22.36 C 41.68 22.57 41.73 22.96 41.73 23.54 C 41.73 24.03 41.72 24.54 41.7 25.09 C 41.7 25.23 41.67 25.31 41.62 25.31 C 41.56 25.31 41.45 25.22 41.29 25.03 L 41.17 24.89 L 39.25 22.7 C 39.23 22.67 39.17 22.6 39.07 22.48 L 39.06 22.48 Z M 45.03 21.98 C 44.67 22.13 44.37 22.34 44.14 22.6 C 43.93 22.83 43.77 23.1 43.65 23.43 C 43.54 23.77 43.48 24.1 43.48 24.43 C 43.48 25.21 43.71 25.83 44.18 26.3 C 44.65 26.77 45.28 27 46.06 27 C 46.85 27 47.53 26.74 47.99 26.2 C 48.47 25.65 48.71 24.98 48.71 24.19 C 48.71 23.47 48.48 22.88 48.01 22.44 C 47.55 21.99 46.94 21.77 46.18 21.77 C 45.78 21.77 45.39 21.84 45.03 21.99 L 45.03 21.98 Z M 47.11 22.52 C 47.33 22.73 47.52 23.02 47.66 23.39 C 47.8 23.76 47.87 24.13 47.87 24.52 C 47.87 25.19 47.72 25.73 47.42 26.12 C 47.12 26.52 46.72 26.72 46.23 26.72 C 45.67 26.72 45.23 26.48 44.89 26 C 44.55 25.51 44.37 24.89 44.37 24.11 C 44.37 23.46 44.51 22.95 44.78 22.58 C 45.05 22.22 45.44 22.03 45.92 22.03 C 46.37 22.03 46.77 22.19 47.1 22.51 L 47.11 22.52 Z M 52.54 21.94 C 52.54 22 52.58 22.04 52.67 22.06 L 52.83 22.08 C 53.03 22.11 53.13 22.2 53.13 22.36 C 53.13 22.45 53.11 22.53 53.06 22.61 C 53.01 22.69 52.88 22.85 52.68 23.09 L 52.3 23.54 L 52.14 23.74 C 52.1 23.79 52.07 23.81 52.04 23.81 C 52 23.81 51.94 23.76 51.87 23.65 L 51.61 23.26 L 51.36 22.91 C 51.19 22.65 51.1 22.44 51.09 22.3 C 51.08 22.24 51.11 22.18 51.17 22.13 C 51.23 22.08 51.3 22.04 51.38 22.03 C 51.47 22.02 51.51 21.98 51.51 21.91 C 51.51 21.85 51.48 21.81 51.4 21.81 C 51.35 21.81 51.27 21.82 51.17 21.83 L 50.84 21.86 C 50.7 21.88 50.54 21.89 50.36 21.89 C 50.17 21.89 49.88 21.87 49.48 21.84 C 49.39 21.84 49.32 21.83 49.28 21.83 C 49.2 21.83 49.16 21.87 49.16 21.94 C 49.16 22 49.21 22.05 49.3 22.06 C 49.53 22.11 49.71 22.2 49.85 22.34 C 49.99 22.48 50.29 22.87 50.74 23.51 C 50.9 23.74 51.04 23.93 51.15 24.09 C 51.33 24.33 51.42 24.48 51.42 24.53 C 51.42 24.57 51.33 24.7 51.16 24.9 C 51.04 25.03 50.84 25.26 50.56 25.6 C 50.24 25.99 49.99 26.26 49.8 26.42 C 49.62 26.58 49.43 26.67 49.24 26.71 C 49.18 26.73 49.14 26.76 49.15 26.81 C 49.15 26.85 49.16 26.87 49.18 26.88 L 49.28 26.89 L 49.44 26.89 L 49.76 26.88 C 49.9 26.87 50.01 26.87 50.09 26.87 C 50.38 26.87 50.68 26.88 50.97 26.91 C 51.04 26.92 51.08 26.92 51.11 26.92 C 51.16 26.92 51.19 26.89 51.19 26.82 C 51.19 26.76 51.15 26.73 51.07 26.72 C 50.69 26.69 50.5 26.58 50.5 26.38 C 50.5 26.19 50.78 25.78 51.33 25.14 C 51.42 25.04 51.49 24.95 51.56 24.88 C 51.59 24.84 51.62 24.82 51.64 24.82 C 51.66 24.82 51.68 24.84 51.72 24.88 L 51.9 25.12 C 52.21 25.53 52.42 25.82 52.54 26.01 C 52.66 26.2 52.72 26.34 52.72 26.43 C 52.72 26.6 52.62 26.69 52.43 26.7 C 52.34 26.71 52.29 26.75 52.29 26.82 C 52.29 26.88 52.33 26.91 52.42 26.91 C 52.47 26.91 52.58 26.91 52.71 26.9 L 53.11 26.88 C 53.21 26.87 53.32 26.87 53.43 26.87 C 53.59 26.87 53.78 26.87 54 26.89 L 54.46 26.93 C 54.52 26.93 54.58 26.93 54.62 26.93 C 54.7 26.93 54.75 26.9 54.75 26.83 C 54.75 26.76 54.71 26.71 54.62 26.71 C 54.35 26.69 54.13 26.59 53.95 26.41 C 53.67 26.13 53.33 25.7 52.94 25.12 C 52.68 24.75 52.53 24.53 52.46 24.44 C 52.32 24.26 52.25 24.15 52.25 24.11 C 52.25 24.06 52.3 23.98 52.41 23.86 C 52.44 23.84 52.6 23.65 52.89 23.29 C 53.28 22.82 53.63 22.46 53.94 22.21 C 54.04 22.12 54.2 22.06 54.42 22.03 C 54.5 22.02 54.54 21.98 54.54 21.91 C 54.54 21.85 54.51 21.81 54.44 21.81 C 54.38 21.81 54.3 21.81 54.21 21.83 L 53.76 21.86 C 53.65 21.86 53.54 21.87 53.43 21.87 C 53.24 21.87 53.02 21.86 52.79 21.84 C 52.73 21.84 52.69 21.84 52.66 21.84 C 52.59 21.84 52.54 21.87 52.53 21.94 L 52.54 21.94 Z M 57.08 22.36 C 57.08 22.18 57.17 22.08 57.35 22.05 C 57.45 22.03 57.51 21.99 57.51 21.93 C 57.51 21.86 57.47 21.83 57.41 21.83 C 57.36 21.83 57.25 21.83 57.09 21.84 L 56.71 21.86 L 56.1 21.84 C 55.94 21.84 55.79 21.84 55.67 21.82 C 55.62 21.82 55.58 21.81 55.56 21.81 C 55.5 21.81 55.46 21.85 55.46 21.92 C 55.46 21.98 55.51 22.02 55.61 22.04 C 55.78 22.08 55.91 22.17 56.01 22.31 C 56.11 22.46 56.24 22.75 56.41 23.21 C 56.55 23.59 56.72 24.03 56.94 24.51 L 57.79 26.49 L 57.88 26.72 L 57.97 26.91 C 58 26.96 58.03 26.99 58.08 26.99 C 58.15 26.99 58.2 26.94 58.25 26.83 C 58.27 26.79 58.34 26.63 58.47 26.36 C 58.49 26.32 58.6 26.08 58.8 25.63 L 59.42 24.24 L 59.96 22.97 C 60.12 22.59 60.25 22.34 60.34 22.22 C 60.43 22.1 60.54 22.03 60.69 22 C 60.76 21.99 60.8 21.96 60.8 21.9 C 60.8 21.83 60.78 21.8 60.73 21.8 C 60.7 21.8 60.65 21.8 60.58 21.81 C 60.42 21.84 60.23 21.86 60.01 21.86 C 59.94 21.86 59.82 21.86 59.65 21.85 L 59.26 21.83 C 59.16 21.82 59.09 21.82 59.06 21.82 C 59 21.82 58.97 21.85 58.97 21.91 C 58.97 21.97 59.01 22 59.1 22.01 C 59.3 22.04 59.44 22.1 59.55 22.2 C 59.65 22.3 59.71 22.42 59.71 22.57 C 59.71 22.84 59.57 23.28 59.3 23.88 L 58.48 25.72 C 58.45 25.79 58.42 25.82 58.4 25.82 C 58.37 25.82 58.34 25.77 58.3 25.68 L 57.49 23.67 C 57.22 23.02 57.09 22.58 57.09 22.36 L 57.08 22.36 Z M 63.27 22.62 C 63.27 22.41 63.3 22.27 63.35 22.2 C 63.4 22.13 63.51 22.08 63.69 22.05 C 63.73 22.04 63.77 22.03 63.78 22.02 C 63.79 22 63.79 21.97 63.79 21.92 C 63.79 21.86 63.76 21.83 63.67 21.83 C 63.54 21.83 63.35 21.84 63.1 21.86 L 62.83 21.88 C 62.63 21.9 62.46 21.91 62.33 21.91 C 62.12 21.91 61.97 21.9 61.89 21.88 C 61.8 21.86 61.74 21.85 61.69 21.85 C 61.63 21.85 61.6 21.88 61.6 21.95 C 61.6 22 61.62 22.03 61.66 22.05 C 61.69 22.06 61.77 22.09 61.89 22.1 C 62.1 22.14 62.24 22.2 62.32 22.29 C 62.39 22.39 62.44 22.55 62.44 22.78 L 62.44 26.04 C 62.43 26.25 62.4 26.4 62.35 26.49 C 62.29 26.58 62.17 26.66 62 26.73 L 61.89 26.81 L 61.9 26.84 C 61.92 26.89 61.95 26.92 62 26.92 C 62.05 26.92 62.14 26.91 62.26 26.88 C 62.4 26.86 62.59 26.85 62.84 26.85 C 63.03 26.85 63.29 26.86 63.6 26.9 C 63.73 26.91 63.82 26.92 63.89 26.92 C 64.05 26.92 64.13 26.88 64.13 26.81 C 64.13 26.73 64.07 26.69 63.95 26.69 C 63.77 26.69 63.62 26.64 63.51 26.54 C 63.4 26.44 63.33 26.3 63.3 26.11 L 63.27 25.74 L 63.27 22.6 L 63.27 22.62 Z M 66.82 22.55 C 66.82 22.23 66.94 22.06 67.19 22.04 C 67.29 22.04 67.35 22 67.35 21.94 C 67.35 21.87 67.27 21.84 67.13 21.84 C 66.93 21.84 66.74 21.85 66.55 21.86 C 66.29 21.89 66.11 21.91 65.99 21.91 C 65.92 21.91 65.81 21.9 65.66 21.89 L 65.51 21.88 C 65.44 21.87 65.4 21.87 65.36 21.86 C 65.32 21.86 65.28 21.85 65.26 21.85 C 65.18 21.85 65.15 21.89 65.15 21.97 C 65.15 22.03 65.19 22.06 65.29 22.08 L 65.51 22.11 C 65.83 22.17 65.99 22.39 65.99 22.78 L 65.99 25.85 C 65.99 26.14 65.96 26.35 65.9 26.47 C 65.84 26.6 65.73 26.68 65.58 26.73 C 65.51 26.75 65.48 26.78 65.48 26.82 C 65.48 26.89 65.52 26.92 65.59 26.92 C 65.62 26.92 65.69 26.92 65.79 26.91 C 66.11 26.87 66.41 26.85 66.69 26.85 C 66.86 26.85 67.02 26.85 67.15 26.86 L 67.54 26.88 C 67.79 26.89 67.94 26.9 67.98 26.9 C 68.15 26.91 68.26 26.92 68.33 26.92 C 68.63 26.92 68.87 26.81 69.05 26.6 C 69.25 26.35 69.35 26.07 69.35 25.76 C 69.35 25.66 69.33 25.61 69.28 25.61 C 69.26 25.61 69.19 25.68 69.09 25.83 C 68.74 26.32 68.16 26.57 67.34 26.57 C 67.17 26.57 67.05 26.55 66.99 26.52 C 66.88 26.46 66.83 26.2 66.83 25.74 L 66.83 22.55 L 66.82 22.55 Z M 71.82 22.55 C 71.82 22.23 71.94 22.06 72.18 22.04 C 72.29 22.04 72.34 22 72.34 21.94 C 72.34 21.87 72.27 21.84 72.12 21.84 C 71.92 21.84 71.73 21.85 71.54 21.86 C 71.29 21.89 71.1 21.91 70.99 21.91 C 70.91 21.91 70.8 21.9 70.66 21.89 L 70.5 21.88 C 70.44 21.87 70.39 21.87 70.36 21.86 C 70.31 21.86 70.27 21.85 70.25 21.85 C 70.18 21.85 70.14 21.89 70.14 21.97 C 70.14 22.03 70.19 22.06 70.28 22.08 L 70.5 22.11 C 70.82 22.17 70.98 22.39 70.98 22.78 L 70.98 25.85 C 70.98 26.14 70.95 26.35 70.89 26.47 C 70.83 26.6 70.73 26.68 70.57 26.73 C 70.51 26.75 70.48 26.78 70.48 26.82 C 70.48 26.89 70.51 26.92 70.58 26.92 C 70.61 26.92 70.68 26.92 70.78 26.91 C 71.11 26.87 71.41 26.85 71.69 26.85 C 71.86 26.85 72.01 26.85 72.14 26.86 L 72.54 26.88 C 72.78 26.89 72.93 26.9 72.97 26.9 C 73.14 26.91 73.26 26.92 73.32 26.92 C 73.63 26.92 73.87 26.81 74.04 26.6 C 74.24 26.35 74.34 26.07 74.34 25.76 C 74.34 25.66 74.32 25.61 74.28 25.61 C 74.25 25.61 74.18 25.68 74.08 25.83 C 73.74 26.32 73.15 26.57 72.34 26.57 C 72.16 26.57 72.04 26.55 71.98 26.52 C 71.88 26.46 71.82 26.2 71.82 25.74 L 71.82 22.55 Z M 76.81 22.55 C 76.81 22.35 76.87 22.22 76.99 22.18 L 77.24 22.15 L 77.68 22.15 C 78.08 22.15 78.36 22.21 78.54 22.32 C 78.71 22.43 78.8 22.6 78.8 22.85 C 78.8 22.96 78.82 23.02 78.87 23.01 C 78.96 23.01 79.01 22.91 79.01 22.72 C 79.01 22.63 79 22.48 78.98 22.26 C 78.97 22.12 78.96 22.02 78.96 21.96 C 78.96 21.88 78.93 21.84 78.86 21.84 C 78.85 21.84 78.83 21.84 78.81 21.84 C 78.62 21.86 78.14 21.87 77.34 21.87 L 75.97 21.86 L 75.6 21.84 C 75.53 21.84 75.47 21.84 75.42 21.84 C 75.37 21.84 75.33 21.83 75.32 21.83 C 75.24 21.83 75.2 21.86 75.2 21.92 C 75.2 21.98 75.23 22.02 75.29 22.03 C 75.57 22.07 75.75 22.14 75.84 22.24 C 75.93 22.34 75.98 22.52 75.98 22.8 L 75.98 25.72 C 75.98 25.94 75.96 26.12 75.93 26.25 C 75.91 26.4 75.86 26.51 75.82 26.57 C 75.77 26.63 75.67 26.68 75.54 26.74 C 75.48 26.76 75.45 26.8 75.46 26.84 C 75.46 26.9 75.49 26.92 75.55 26.92 C 75.59 26.92 75.66 26.92 75.76 26.91 C 76.12 26.89 76.4 26.88 76.57 26.88 C 76.84 26.88 77.04 26.89 77.2 26.9 L 77.62 26.94 C 77.81 26.96 77.98 26.97 78.14 26.97 C 78.4 26.97 78.61 26.93 78.77 26.85 C 78.93 26.76 79.06 26.63 79.17 26.43 C 79.3 26.21 79.37 25.97 79.37 25.73 C 79.37 25.7 79.36 25.67 79.33 25.65 C 79.31 25.63 79.29 25.62 79.27 25.63 C 79.26 25.63 79.24 25.64 79.22 25.68 C 78.92 26.28 78.28 26.59 77.3 26.59 C 77.18 26.59 77.1 26.57 77.04 26.53 C 76.98 26.49 76.94 26.42 76.89 26.3 C 76.84 26.15 76.81 25.9 76.81 25.56 L 76.81 25.23 C 76.81 24.96 76.82 24.77 76.84 24.65 C 76.85 24.54 76.88 24.47 76.92 24.43 C 76.96 24.4 77.04 24.38 77.16 24.38 L 77.41 24.38 C 77.66 24.38 77.83 24.38 77.92 24.4 C 78.01 24.42 78.08 24.46 78.15 24.51 C 78.26 24.62 78.34 24.78 78.37 24.99 C 78.38 25.09 78.42 25.13 78.48 25.13 C 78.51 25.13 78.53 25.12 78.54 25.11 C 78.55 25.1 78.55 25.07 78.55 25.04 L 78.55 24.85 C 78.55 24.71 78.54 24.54 78.53 24.35 C 78.51 24.06 78.5 23.88 78.5 23.8 C 78.5 23.75 78.5 23.7 78.5 23.64 C 78.51 23.55 78.51 23.49 78.51 23.48 C 78.51 23.41 78.49 23.37 78.43 23.38 C 78.38 23.38 78.35 23.4 78.33 23.45 L 78.24 23.63 C 78.11 23.9 77.93 24.03 77.69 24.03 L 77.22 24.03 L 77.11 24.04 C 76.99 24.04 76.91 24 76.87 23.94 C 76.84 23.88 76.82 23.74 76.82 23.51 L 76.82 22.56 L 76.83 22.56 L 76.81 22.55 Z" fill="#4B4B4B"/>
    <path d="M 26.44 26.86 L 26.44 0 L 0 0 L 0 26.86 L 26.44 26.86 Z" fill="#FF8200"/>
    <path d="M 23.11 3.39 L 23.11 10.16 L 20.64 10.16 C 20.64 8.91 19.42 7.9 17.92 7.9 C 16.82 7.9 15.88 8.44 15.45 9.22 L 15.45 17.69 C 15.45 19.49 16.83 20.95 18.53 20.95 L 18.54 20.95 L 18.54 23.46 L 7.91 23.46 L 7.91 20.95 L 7.92 20.95 C 9.62 20.95 11 19.49 11 17.69 L 11 9.22 C 10.57 8.44 9.62 7.9 8.53 7.9 C 7.03 7.9 5.81 8.91 5.81 10.16 L 3.34 10.16 L 3.34 3.39 L 23.11 3.39 Z" fill="white"/>
  </g>
</svg>